<svg width="809" height="447" viewBox="0 0 809 447" fill="none" xmlns="http://www.w3.org/2000/svg">
<path d="M150.494 113.648V157.044H114.14V113.648L73.2193 31.6155H113.569L132.412 71.014L151.065 31.6155H191.605L150.494 113.648Z" fill="#131313"/>
<path d="M249.34 160.85C240.204 160.85 231.576 159.137 223.455 155.711C215.334 152.158 208.228 147.4 202.138 141.436C196.174 135.473 191.416 128.43 187.863 120.31C184.437 112.189 182.724 103.561 182.724 94.4247C182.724 85.2888 184.437 76.7239 187.863 68.73C191.416 60.6093 196.174 53.567 202.138 47.6033C208.228 41.5127 215.334 36.7545 223.455 33.3285C231.576 29.7757 240.204 27.9992 249.34 27.9992C258.476 27.9992 267.104 29.7757 275.225 33.3285C283.346 36.7545 290.388 41.4493 296.352 47.413C302.442 53.3767 307.2 60.4189 310.626 68.5397C314.179 76.6605 315.956 85.2888 315.956 94.4247C315.956 103.561 314.179 112.189 310.626 120.31C307.2 128.43 302.442 135.473 296.352 141.436C290.388 147.4 283.346 152.158 275.225 155.711C267.104 159.137 258.476 160.85 249.34 160.85ZM249.34 62.4491C245.026 62.4491 240.965 63.3373 237.159 65.1138C233.479 66.7633 230.243 69.0473 227.452 71.9657C224.787 74.8841 222.63 78.31 220.981 82.2435C219.458 86.0501 218.697 90.1105 218.697 94.4247C218.697 98.7389 219.458 102.863 220.981 106.796C222.63 110.603 224.787 114.029 227.452 117.074C230.243 119.992 233.479 122.34 237.159 124.116C240.965 125.766 245.026 126.591 249.34 126.591C253.654 126.591 257.651 125.766 261.331 124.116C265.137 122.34 268.373 119.992 271.038 117.074C273.829 114.029 275.986 110.603 277.509 106.796C279.031 102.863 279.793 98.7389 279.793 94.4247C279.793 90.1105 279.031 86.0501 277.509 82.2435C275.986 78.31 273.829 74.8841 271.038 71.9657C268.373 69.0473 265.137 66.7633 261.331 65.1138C257.651 63.3373 253.654 62.4491 249.34 62.4491Z" fill="#131313"/>
<path d="M430.437 110.603C430.437 116.44 429.486 121.959 427.582 127.162C425.679 132.237 423.014 136.868 419.589 141.056C416.289 145.116 412.292 148.669 407.598 151.714C403.03 154.76 398.081 157.044 392.752 158.566C390.468 159.201 388.057 159.708 385.519 160.089C383.108 160.596 380.634 160.85 378.096 160.85C375.559 160.85 373.021 160.596 370.483 160.089C368.072 159.708 365.725 159.201 363.441 158.566C358.112 157.044 353.163 154.76 348.595 151.714C344.027 148.669 340.03 145.116 336.604 141.056C333.178 136.868 330.514 132.237 328.61 127.162C326.707 121.959 325.755 116.44 325.755 110.603V31.6155H362.87V108.7C362.87 110.73 363.251 112.633 364.012 114.409C364.9 116.059 366.042 117.518 367.438 118.787C368.834 120.056 370.42 121.071 372.196 121.832C374.099 122.594 376.066 122.974 378.096 122.974C380.127 122.974 382.03 122.594 383.806 121.832C385.71 121.071 387.359 120.056 388.755 118.787C390.151 117.518 391.229 116.059 391.991 114.409C392.879 112.633 393.323 110.73 393.323 108.7V31.6155H430.437V110.603Z" fill="#131313"/>
<path d="M483.38 53.6939L460.35 53.5036L458.637 0.210938L485.473 0.401277L483.38 53.6939Z" fill="#131313"/>
<path d="M579.888 157.044H550.007L504.327 31.6155H541.632L565.043 95.9473L588.453 31.6155H625.568L579.888 157.044Z" fill="#131313"/>
<path d="M630.874 157.044V31.6155H730.417V63.0201H663.992V78.4369H726.801V110.032H663.992V125.449H730.417V157.044H630.874Z" fill="#131313"/>
<path d="M91.7866 300.044V241.422L68.9469 279.107C68.3125 280.122 67.4877 280.82 66.4726 281.201C65.4575 281.455 64.5693 281.581 63.808 281.581C63.1736 281.581 62.3488 281.455 61.3337 281.201C60.3186 280.82 59.4938 280.122 58.8594 279.107L36.0197 241.422V300.044H0.618164V174.616H32.2131C33.8626 174.616 35.2584 175.377 36.4004 176.9L63.808 222.579L91.406 176.9C92.2942 175.377 93.6265 174.616 95.4029 174.616H126.998V300.044H91.7866Z" fill="#131313"/>
<path d="M219.748 300.044L213.467 283.104H177.684L171.404 300.044H134.479L180.349 174.616H210.802L256.672 300.044H219.748ZM195.576 227.718L187.582 252.08H203.569L195.576 227.718Z" fill="#131313"/>
<path d="M315.51 300.044H258.982V174.616H315.51C324.138 174.616 332.259 176.265 339.872 179.564C347.485 182.863 354.147 187.368 359.857 193.078C365.567 198.661 370.071 205.259 373.37 212.872C376.67 220.485 378.319 228.606 378.319 237.234C378.319 245.863 376.67 253.983 373.37 261.597C370.071 269.21 365.567 275.872 359.857 281.581C354.147 287.291 347.485 291.796 339.872 295.095C332.259 298.394 324.138 300.044 315.51 300.044ZM311.894 207.162H294.574V267.307H311.894C316.081 267.307 319.951 266.545 323.504 265.023C327.184 263.373 330.356 261.216 333.02 258.551C335.812 255.76 337.969 252.588 339.492 249.035C341.141 245.355 341.966 241.422 341.966 237.234C341.966 233.047 341.141 229.177 339.492 225.624C337.969 221.944 335.812 218.772 333.02 216.108C330.356 213.316 327.184 211.159 323.504 209.636C319.951 207.987 316.081 207.162 311.894 207.162Z" fill="#131313"/>
<path d="M386.944 300.044V174.616H486.487V206.02H420.062V221.437H482.871V253.032H420.062V268.449H486.487V300.044H386.944Z" fill="#131313"/>
<path d="M650.277 300.044V241.422L627.437 279.107C626.803 280.122 625.978 280.82 624.963 281.201C623.948 281.455 623.06 281.581 622.298 281.581C621.664 281.581 620.839 281.455 619.824 281.201C618.809 280.82 617.984 280.122 617.35 279.107L594.51 241.422V300.044H559.109V174.616H590.703C592.353 174.616 593.749 175.377 594.891 176.9L622.298 222.579L649.896 176.9C650.785 175.377 652.117 174.616 653.893 174.616H685.488V300.044H650.277Z" fill="#131313"/>
<path d="M708.804 300.044V174.616H808.347V206.02H741.922V221.437H804.731V253.032H741.922V268.449H808.347V300.044H708.804Z" fill="#131313"/>
<path d="M98.2437 442.044H28.202V316.616H92.9145C95.3253 316.616 97.7996 316.933 100.337 317.567C102.875 318.202 105.349 319.09 107.76 320.232C110.171 321.247 112.455 322.516 114.612 324.038C116.769 325.561 118.609 327.274 120.132 329.177C122.796 332.476 124.827 336.156 126.222 340.217C127.745 344.277 128.506 348.401 128.506 352.588C128.506 357.41 127.618 361.978 125.842 366.292C124.192 370.606 121.718 374.413 118.419 377.712C122.86 380.757 126.159 384.944 128.316 390.274C130.6 395.603 131.742 400.932 131.742 406.261C131.742 411.083 130.917 415.714 129.268 420.155C127.618 424.47 125.271 428.276 122.225 431.575C119.307 434.748 115.818 437.285 111.757 439.189C107.697 441.092 103.192 442.044 98.2437 442.044ZM83.0173 344.214H63.0325V366.102H83.0173C86.0626 366.102 88.6003 365.023 90.6305 362.866C92.7876 360.709 93.8661 358.108 93.8661 355.062C93.8661 352.144 92.7876 349.606 90.6305 347.449C88.6003 345.292 86.0626 344.214 83.0173 344.214ZM84.1593 391.225H63.0325V413.304H84.1593C87.2045 413.304 89.8057 412.225 91.9628 410.068C94.1199 407.911 95.1984 405.31 95.1984 402.264C95.1984 399.219 94.1199 396.618 91.9628 394.461C89.8057 392.304 87.2045 391.225 84.1593 391.225Z" fill="#1E4BFF"/>
<path d="M144.459 442.044V316.616H244.002V348.02H177.577V363.437H240.386V395.032H177.577V410.449H244.002V442.044H144.459Z" fill="#1E4BFF"/>
<path d="M358.848 349.162H326.492V442.044H290.71V349.162H258.353L255.308 346.117V316.616H361.893V346.117L358.848 349.162Z" fill="#1E4BFF"/>
<path d="M476.42 349.162H444.063V442.044H408.281V349.162H375.925L372.88 346.117V316.616H479.465V346.117L476.42 349.162Z" fill="#1E4BFF"/>
<path d="M489.367 442.044V316.616H588.91V348.02H522.485V363.437H585.294V395.032H522.485V410.449H588.91V442.044H489.367Z" fill="#1E4BFF"/>
<path d="M682.39 442.044L662.596 403.787H640.327V442.044H603.593V316.616H669.067C671.985 316.616 674.967 317.06 678.013 317.948C681.185 318.709 684.23 319.851 687.148 321.374C690.067 322.77 692.731 324.483 695.142 326.513C697.68 328.543 699.837 330.827 701.614 333.365C703.771 336.537 705.42 339.963 706.562 343.643C707.704 347.322 708.275 351.065 708.275 354.872C708.275 360.963 706.879 366.736 704.088 372.192C701.296 377.521 697.49 382.026 692.668 385.706L721.979 442.044H682.39ZM658.789 345.926H640.327V369.718H658.789C662.088 369.718 664.943 368.576 667.354 366.292C669.765 363.881 670.97 361.026 670.97 357.727C670.97 354.428 669.765 351.636 667.354 349.352C664.943 347.068 662.088 345.926 658.789 345.926Z" fill="#1E4BFF"/>
<path d="M753.472 446.611C751.061 446.611 748.714 446.167 746.43 445.279C744.273 444.391 742.369 443.186 740.72 441.663C739.07 440.013 737.738 438.173 736.723 436.143C735.835 433.986 735.39 431.639 735.39 429.101C735.39 426.69 735.835 424.406 736.723 422.249C737.738 420.092 739.07 418.189 740.72 416.539C742.369 414.89 744.273 413.621 746.43 412.733C748.714 411.844 751.061 411.4 753.472 411.4C755.883 411.4 758.167 411.844 760.324 412.733C762.608 413.621 764.575 414.89 766.224 416.539C767.874 418.189 769.142 420.092 770.031 422.249C771.046 424.406 771.553 426.69 771.553 429.101C771.553 434.05 769.777 438.237 766.224 441.663C762.671 444.962 758.42 446.611 753.472 446.611Z" fill="#1E4BFF"/>
</svg>
