<svg width="733" height="404" viewBox="0 0 733 404" fill="none" xmlns="http://www.w3.org/2000/svg">
<path d="M69.9728 102.987V142.043H37.2549V102.987L0.425903 29.1582H36.741L53.6995 64.6168L70.4867 29.1582H106.973L69.9728 102.987Z" fill="#131313"/>
<path d="M158.934 145.469C150.712 145.469 142.947 143.928 135.638 140.844C128.329 137.647 121.934 133.364 116.453 127.997C111.085 122.63 106.803 116.292 103.605 108.983C100.522 101.674 98.9802 93.9087 98.9802 85.6864C98.9802 77.4641 100.522 69.7557 103.605 62.5612C106.803 55.2525 111.085 48.9145 116.453 43.5472C121.934 38.0657 128.329 33.7832 135.638 30.6999C142.947 27.5023 150.712 25.9035 158.934 25.9035C167.157 25.9035 174.922 27.5023 182.231 30.6999C189.54 33.7832 195.878 38.0086 201.245 43.3759C206.727 48.7432 211.009 55.0812 214.092 62.3899C217.29 69.6986 218.889 77.4641 218.889 85.6864C218.889 93.9087 217.29 101.674 214.092 108.983C211.009 116.292 206.727 122.63 201.245 127.997C195.878 133.364 189.54 137.647 182.231 140.844C174.922 143.928 167.157 145.469 158.934 145.469ZM158.934 56.9084C155.052 56.9084 151.397 57.7078 147.971 59.3066C144.66 60.7912 141.748 62.8467 139.235 65.4733C136.837 68.0999 134.896 71.1832 133.411 74.7234C132.041 78.1493 131.356 81.8037 131.356 85.6864C131.356 89.5692 132.041 93.2806 133.411 96.8208C134.896 100.247 136.837 103.33 139.235 106.071C141.748 108.697 144.66 110.81 147.971 112.409C151.397 113.893 155.052 114.636 158.934 114.636C162.817 114.636 166.414 113.893 169.726 112.409C173.152 110.81 176.064 108.697 178.462 106.071C180.975 103.33 182.916 100.247 184.287 96.8208C185.657 93.2806 186.342 89.5692 186.342 85.6864C186.342 81.8037 185.657 78.1493 184.287 74.7234C182.916 71.1832 180.975 68.0999 178.462 65.4733C176.064 62.8467 173.152 60.7912 169.726 59.3066C166.414 57.7078 162.817 56.9084 158.934 56.9084Z" fill="#131313"/>
<path d="M321.922 100.247C321.922 105.5 321.066 110.467 319.353 115.15C317.64 119.718 315.242 123.886 312.158 127.654C309.189 131.309 305.592 134.506 301.366 137.247C297.255 139.988 292.802 142.043 288.005 143.414C285.95 143.985 283.78 144.442 281.496 144.784C279.326 145.241 277.099 145.469 274.815 145.469C272.531 145.469 270.247 145.241 267.963 144.784C265.794 144.442 263.681 143.985 261.625 143.414C256.829 142.043 252.375 139.988 248.264 137.247C244.153 134.506 240.556 131.309 237.472 127.654C234.389 123.886 231.991 119.718 230.278 115.15C228.565 110.467 227.708 105.5 227.708 100.247V29.1582H261.111V98.5338C261.111 100.361 261.454 102.074 262.139 103.673C262.939 105.157 263.966 106.471 265.223 107.613C266.479 108.755 267.906 109.668 269.505 110.353C271.218 111.038 272.988 111.381 274.815 111.381C276.642 111.381 278.355 111.038 279.954 110.353C281.667 109.668 283.152 108.755 284.408 107.613C285.664 106.471 286.635 105.157 287.32 103.673C288.119 102.074 288.519 100.361 288.519 98.5338V29.1582H321.922V100.247Z" fill="#131313"/>
<path d="M369.57 49.0287L348.843 48.8574L347.302 0.894043L371.455 1.06535L369.57 49.0287Z" fill="#131313"/>
<path d="M456.428 142.043H429.534L388.423 29.1582H421.997L443.067 87.0568L464.137 29.1582H497.54L456.428 142.043Z" fill="#131313"/>
<path d="M502.315 142.043V29.1582H591.904V57.4223H532.121V71.2974H588.649V99.7328H532.121V113.608H591.904V142.043H502.315Z" fill="#131313"/>
<path d="M87.2739 270.043V217.284L66.7181 251.201C66.1471 252.114 65.4048 252.742 64.4913 253.085C63.5777 253.313 62.7783 253.428 62.0931 253.428C61.5221 253.428 60.7798 253.313 59.8662 253.085C58.9526 252.742 58.2103 252.114 57.6393 251.201L37.0836 217.284V270.043H5.22224V157.158H33.6577C35.1422 157.158 36.3984 157.843 37.4262 159.214L62.0931 200.325L86.9313 159.214C87.7306 157.843 88.9297 157.158 90.5285 157.158H118.964V270.043H87.2739Z" fill="#131313"/>
<path d="M202.439 270.043L196.786 254.798H164.582L158.929 270.043H125.697L166.98 157.158H194.388L235.67 270.043H202.439ZM180.684 204.95L173.489 226.876H187.878L180.684 204.95Z" fill="#131313"/>
<path d="M288.625 270.043H237.749V157.158H288.625C296.39 157.158 303.699 158.643 310.551 161.612C317.403 164.581 323.398 168.635 328.537 173.774C333.676 178.799 337.73 184.737 340.699 191.589C343.668 198.441 345.153 205.75 345.153 213.515C345.153 221.281 343.668 228.589 340.699 235.441C337.73 242.293 333.676 248.289 328.537 253.428C323.398 258.566 317.403 262.62 310.551 265.59C303.699 268.559 296.39 270.043 288.625 270.043ZM285.37 186.45H269.782V240.58H285.37C289.139 240.58 292.622 239.895 295.819 238.525C299.131 237.04 301.986 235.099 304.384 232.7C306.897 230.188 308.838 227.333 310.208 224.136C311.693 220.824 312.435 217.284 312.435 213.515C312.435 209.747 311.693 206.264 310.208 203.066C308.838 199.754 306.897 196.899 304.384 194.501C301.986 191.989 299.131 190.047 295.819 188.677C292.622 187.192 289.139 186.45 285.37 186.45Z" fill="#131313"/>
<path d="M352.916 270.043V157.158H442.504V185.422H382.721V199.297H439.25V227.733H382.721V241.608H442.504V270.043H352.916Z" fill="#131313"/>
<path d="M589.915 270.043V217.284L569.359 251.201C568.788 252.114 568.046 252.742 567.133 253.085C566.219 253.313 565.42 253.428 564.734 253.428C564.163 253.428 563.421 253.313 562.508 253.085C561.594 252.742 560.852 252.114 560.281 251.201L539.725 217.284V270.043H507.864V157.158H536.299C537.784 157.158 539.04 157.843 540.068 159.214L564.734 200.325L589.573 159.214C590.372 157.843 591.571 157.158 593.17 157.158H621.605V270.043H589.915Z" fill="#131313"/>
<path d="M642.59 270.043V157.158H732.179V185.422H672.396V199.297H728.924V227.733H672.396V241.608H732.179V270.043H642.59Z" fill="#131313"/>
<path d="M67.5746 399.043H4.53705V286.158H62.7783C64.9481 286.158 67.1749 286.444 69.4589 287.015C71.7429 287.586 73.9697 288.385 76.1395 289.413C78.3093 290.326 80.3648 291.468 82.3062 292.839C84.2476 294.209 85.9035 295.751 87.2739 297.464C89.672 300.433 91.4992 303.745 92.7554 307.399C94.1258 311.053 94.811 314.765 94.811 318.533C94.811 322.873 94.0116 326.984 92.4128 330.867C90.9282 334.75 88.7013 338.176 85.7322 341.145C89.7291 343.886 92.6983 347.654 94.6397 352.45C96.6952 357.247 97.723 362.043 97.723 366.839C97.723 371.179 96.9807 375.347 95.4962 379.344C94.0116 383.227 91.8989 386.653 89.1581 389.622C86.5316 392.477 83.3911 394.761 79.7368 396.474C76.0824 398.187 72.0284 399.043 67.5746 399.043ZM53.8708 310.996H35.8845V330.696H53.8708C56.6116 330.696 58.8955 329.725 60.7227 327.784C62.6641 325.842 63.6348 323.501 63.6348 320.76C63.6348 318.134 62.6641 315.85 60.7227 313.908C58.8955 311.967 56.6116 310.996 53.8708 310.996ZM54.8986 353.307H35.8845V373.177H54.8986C57.6393 373.177 59.9804 372.207 61.9218 370.265C63.8632 368.324 64.8339 365.983 64.8339 363.242C64.8339 360.501 63.8632 358.16 61.9218 356.219C59.9804 354.278 57.6393 353.307 54.8986 353.307Z" fill="#1E4BFF"/>
<path d="M109.168 399.043V286.158H198.757V314.422H138.974V328.297H195.502V356.733H138.974V370.608H198.757V399.043H109.168Z" fill="#1E4BFF"/>
<path d="M302.119 315.45H272.998V399.043H240.794V315.45H211.673L208.933 312.709V286.158H304.859V312.709L302.119 315.45Z" fill="#1E4BFF"/>
<path d="M407.933 315.45H378.812V399.043H346.608V315.45H317.488L314.747 312.709V286.158H410.674V312.709L407.933 315.45Z" fill="#1E4BFF"/>
<path d="M419.586 399.043V286.158H509.174V314.422H449.392V328.297H505.92V356.733H449.392V370.608H509.174V399.043H419.586Z" fill="#1E4BFF"/>
<path d="M593.306 399.043L575.491 364.613H555.45V399.043H522.389V286.158H581.316C583.942 286.158 586.626 286.558 589.367 287.357C592.221 288.042 594.962 289.07 597.589 290.441C600.215 291.697 602.614 293.238 604.783 295.066C607.067 296.893 609.009 298.948 610.607 301.232C612.549 304.087 614.033 307.171 615.061 310.482C616.089 313.794 616.603 317.163 616.603 320.589C616.603 326.071 615.347 331.267 612.834 336.177C610.322 340.973 606.896 345.028 602.556 348.339L628.936 399.043H593.306ZM572.065 312.538H555.45V333.95H572.065C575.035 333.95 577.604 332.922 579.774 330.867C581.944 328.697 583.029 326.128 583.029 323.158C583.029 320.189 581.944 317.677 579.774 315.621C577.604 313.566 575.035 312.538 572.065 312.538Z" fill="#1E4BFF"/>
<path d="M657.28 403.155C655.11 403.155 652.997 402.755 650.942 401.955C649.001 401.156 647.288 400.071 645.803 398.701C644.318 397.216 643.119 395.56 642.206 393.733C641.406 391.792 641.007 389.679 641.007 387.395C641.007 385.225 641.406 383.17 642.206 381.228C643.119 379.287 644.318 377.574 645.803 376.089C647.288 374.605 649.001 373.463 650.942 372.664C652.997 371.864 655.11 371.464 657.28 371.464C659.45 371.464 661.505 371.864 663.447 372.664C665.502 373.463 667.272 374.605 668.757 376.089C670.241 377.574 671.383 379.287 672.183 381.228C673.096 383.17 673.553 385.225 673.553 387.395C673.553 391.849 671.954 395.617 668.757 398.701C665.559 401.67 661.734 403.155 657.28 403.155Z" fill="#1E4BFF"/>
</svg>
