<svg width="157" height="40" viewBox="0 0 157 40" fill="none" xmlns="http://www.w3.org/2000/svg">
<g clip-path="url(#clip0_0_351)">
<path d="M11.8552 37.6027C11.9339 37.6439 11.9788 37.6776 12.0312 37.6926C14.2668 38.61 16.5997 39.1006 19.0187 39.1942C20.7075 39.2541 22.3851 39.0968 24.029 38.7261C28.4214 37.7225 32.0687 35.5319 34.9371 32.1243C37.6744 28.8515 39.1199 25.0882 39.3558 20.8792C39.4307 19.4188 39.3071 17.9734 39.045 16.5354C38.4683 13.4424 37.1577 10.6826 35.2142 8.20363C35.0569 7.99768 34.9745 8.03138 34.821 8.20363C33.6227 9.518 32.372 10.8024 31.1026 12.0606C27.9908 15.1349 24.7442 18.0707 21.3853 20.8979C19.0149 22.8901 16.6034 24.8448 14.1132 26.7058C11.2411 28.8515 8.32777 30.941 5.11488 32.5999C4.92765 32.6935 4.9651 32.7646 5.08493 32.8807C5.33582 33.1166 5.59794 33.3675 5.82636 33.6334C6.00236 33.8431 6.13342 33.8094 6.33938 33.6821C9.58597 31.7648 12.7352 29.7053 15.7908 27.5072C20.8648 23.8637 25.7403 19.9655 30.4173 15.8389C31.1101 15.2211 31.7916 14.592 32.4282 13.9179C32.6716 13.6633 32.9524 13.6071 33.2295 13.7569C33.5104 13.8917 33.5815 14.1276 33.5366 14.4122C33.5029 14.6069 33.3569 14.7305 33.2333 14.8653C31.2524 17.0709 29.1816 19.1904 27.0172 21.2237C23.7219 24.3205 20.2731 27.2526 16.682 30.0236C14.3491 31.8322 11.9713 33.5585 9.40623 35.0414C9.05049 35.2473 8.68726 35.4421 8.29033 35.663C8.64232 35.8952 8.95687 36.0974 9.26768 36.2958C9.36129 36.3557 9.43244 36.3557 9.53729 36.2958C10.642 35.5993 11.7541 34.929 12.8588 34.2325C15.8507 32.3378 18.7154 30.267 21.4901 28.0914C23.1902 26.7508 24.8828 25.3915 26.5229 23.9835C27.6201 23.0436 28.721 22.1112 29.7321 21.0814C29.9418 20.8567 30.2226 20.823 30.4997 20.9616C30.7806 21.1039 30.8255 21.3585 30.7881 21.6319C30.7581 21.7929 30.642 21.9015 30.5409 22.0138C29.4924 23.1821 28.4027 24.3243 27.2831 25.4364C25.3546 27.3237 23.3437 29.1361 21.2617 30.8661C19.1722 32.6074 17.0228 34.2925 14.7685 35.839C13.8399 36.4681 12.885 37.0672 11.8627 37.6027" fill="#131313"/>
<path fill-rule="evenodd" clip-rule="evenodd" d="M20.0151 0.759766C20.0937 0.887083 20.2211 0.81968 20.3222 0.81968C23.4077 0.894572 26.2986 1.68094 29.0172 3.10016C30.8221 4.03631 32.4211 5.23834 33.8552 6.6613C34.0425 6.84853 34.1249 6.94589 33.8665 7.1818C31.6234 9.25258 29.298 11.2073 26.9502 13.1545C24.3476 15.3076 21.6964 17.4009 19.019 19.4567C15.016 22.5423 10.8595 25.4181 6.59061 28.133C5.56458 28.7808 4.53481 29.4249 3.49755 30.0765C3.08938 30.3236 3.08564 30.3161 2.84224 29.9267C1.42302 27.6649 0.513079 25.2272 0.176063 22.6134C-0.520438 17.2099 0.808905 12.3119 4.28392 8.03183C7.17477 4.48941 10.9419 2.23889 15.4729 1.23908C16.63 0.984443 17.8133 0.823424 19.0115 0.823424C19.0827 0.823424 19.1688 0.864615 19.2138 0.759766H20.0151Z" fill="#131313"/>
<path fill-rule="evenodd" clip-rule="evenodd" d="M11.8552 37.6027C12.8737 37.0672 13.8323 36.4718 14.761 35.839C17.019 34.2925 19.1684 32.6074 21.2542 30.8661C23.3362 29.1324 25.3471 27.3237 27.2756 25.4364C28.3952 24.3243 29.4849 23.1859 30.5334 22.0138C30.6382 21.8977 30.7543 21.7891 30.7805 21.6319C30.818 21.3585 30.773 21.1039 30.4922 20.9616C30.2151 20.823 29.9342 20.8567 29.7245 21.0814C28.7135 22.1112 27.6126 23.0436 26.5154 23.9835C24.8753 25.3952 23.1827 26.7545 21.4826 28.0914C18.7079 30.267 15.8432 32.334 12.8513 34.2325C11.7503 34.929 10.6344 35.6031 9.52977 36.2958C9.42492 36.3595 9.35003 36.3595 9.26016 36.2958C8.94935 36.0974 8.6348 35.8914 8.28281 35.663C8.67974 35.4421 9.04297 35.2511 9.39871 35.0414C11.9638 33.5585 14.3416 31.8322 16.6745 30.0236C20.2656 27.2526 23.7144 24.3205 27.0097 21.2237C29.1741 19.1904 31.2449 17.0709 33.2258 14.8653C33.3456 14.7305 33.4954 14.6032 33.5291 14.4122C33.574 14.1276 33.5029 13.8917 33.222 13.7569C32.9412 13.6071 32.6641 13.6633 32.4207 13.9179C31.7841 14.592 31.0988 15.2211 30.4098 15.8389C25.729 19.9618 20.8573 23.8599 15.7833 27.5072C12.7277 29.7053 9.57845 31.7611 6.33186 33.6821C6.1259 33.8094 5.99484 33.8431 5.81884 33.6334C5.59042 33.3675 5.33204 33.1166 5.07741 32.8807C4.95758 32.7646 4.92388 32.6935 5.10736 32.5999C8.32025 30.941 11.2373 28.8515 14.1057 26.7058C16.5959 24.8448 19.0074 22.8901 21.3778 20.8979C24.7367 18.0707 27.987 15.1349 31.0951 12.0606C32.3645 10.7987 33.6152 9.518 34.8135 8.20363C34.967 8.03138 35.0494 7.99768 35.2067 8.20363C37.1501 10.6863 38.4608 13.4461 39.0374 16.5354C39.2996 17.9734 39.4231 19.415 39.3482 20.8792C39.1123 25.0919 37.6669 28.8515 34.9296 32.1243C32.0649 35.5319 28.4139 37.7225 24.0215 38.7261C22.3776 39.0968 20.7 39.2541 19.0112 39.1942C16.5921 39.1006 14.2592 38.61 12.0237 37.6926C11.9713 37.6739 11.9263 37.6402 11.8477 37.6027" fill="#131313"/>
<path d="M53.5556 12.6217C53.0164 11.9177 52.1514 11.5432 51.2527 11.5432C49.6537 11.5432 48.5678 12.7415 48.5678 14.2656C48.5678 15.8121 49.6612 16.9355 51.2939 16.9355C52.1476 16.9355 53.0051 16.5236 53.5519 15.8907V18.9501C52.6831 19.2122 52.054 19.4032 51.2377 19.4032C49.8372 19.4032 48.4966 18.8827 47.4594 17.9615C46.3509 16.9804 45.8417 15.7073 45.8417 14.2469C45.8417 12.9025 46.3622 11.6144 47.3283 10.652C48.3169 9.65594 49.7473 9.06055 51.159 9.06055C52.0053 9.06055 52.7767 9.24403 53.5519 9.55109V12.6179L53.5556 12.6217Z" fill="#131313"/>
<path d="M66.3434 14.0525C66.3434 17.2354 64.003 19.4747 60.7714 19.4747C57.5398 19.4747 55.1956 17.2354 55.1956 14.0525C55.1956 11.083 57.8693 9.00098 60.7714 9.00098C63.6735 9.00098 66.3434 11.083 66.3434 14.0525ZM57.9255 14.0749C57.9255 15.76 59.2099 17.007 60.7751 17.007C62.3404 17.007 63.621 15.76 63.621 14.0749C63.621 12.7156 62.3404 11.4762 60.7751 11.4762C59.2099 11.4762 57.9255 12.7156 57.9255 14.0749Z" fill="#131313"/>
<path d="M78.7342 14.0525C78.7342 17.2354 76.3938 19.4747 73.1585 19.4747C69.9269 19.4747 67.5865 17.2354 67.5865 14.0525C67.5865 11.083 70.2601 9.00098 73.1585 9.00098C76.0568 9.00098 78.7342 11.083 78.7342 14.0525ZM70.3163 14.0749C70.3163 15.76 71.5932 17.007 73.1585 17.007C74.7237 17.007 76.0044 15.76 76.0044 14.0749C76.0044 12.7156 74.7237 11.4762 73.1585 11.4762C71.5932 11.4762 70.3163 12.7156 70.3163 14.0749Z" fill="#131313"/>
<path d="M80.4832 9.32666H84.49C86.6581 9.32666 88.1522 10.304 88.1522 12.5583C88.1522 14.8799 86.8716 15.8947 84.5873 15.8947H83.1045V19.1488H80.487V9.32666H80.4832ZM83.1007 13.8314H83.5426C84.49 13.8314 85.4261 13.8314 85.4261 12.6369C85.4261 11.4012 84.5574 11.3862 83.5426 11.3862H83.1007V13.8314Z" fill="#131313"/>
<path d="M92.4697 11.4873V13.1275H95.4205V15.2919H92.4697V16.9882H95.5778V19.1488H89.8522V9.32666H95.5778V11.4873H92.4697Z" fill="#131313"/>
<path d="M106.111 19.1488H102.85L100.378 15.3742H100.348V19.1488H97.7307V9.32666H101.648C103.64 9.32666 105.145 10.2478 105.145 12.3448C105.145 13.7041 104.37 14.8762 102.939 15.1196L106.107 19.1488H106.111ZM100.352 13.7303H100.603C101.46 13.7303 102.423 13.5731 102.423 12.5059C102.423 11.4311 101.46 11.2739 100.603 11.2739H100.352V13.7266V13.7303Z" fill="#131313"/>
<path d="M109.923 17.445L109.231 19.1488H106.448L110.32 9.32666H113.177L116.971 19.1488H114.181L113.529 17.445H109.923ZM111.755 12.3598H111.725L110.642 15.4903H112.822L111.751 12.3598H111.755Z" fill="#131313"/>
<path d="M125.797 12.6217C125.261 11.9177 124.392 11.5432 123.497 11.5432C121.891 11.5432 120.809 12.7415 120.809 14.2656C120.809 15.8121 121.906 16.9355 123.535 16.9355C124.392 16.9355 125.246 16.5236 125.797 15.8907V18.9501C124.924 19.2122 124.299 19.4032 123.486 19.4032C122.082 19.4032 120.745 18.8827 119.704 17.9615C118.596 16.9804 118.09 15.7073 118.09 14.2469C118.09 12.9025 118.607 11.6144 119.573 10.652C120.562 9.65594 121.988 9.06055 123.404 9.06055C124.246 9.06055 125.021 9.24403 125.797 9.55109V12.6179V12.6217Z" fill="#131313"/>
<path d="M131.635 9.32666H129.017V19.1488H131.635V9.32666Z" fill="#131313"/>
<path d="M144.786 14.0529C144.786 17.2359 142.449 19.4752 139.214 19.4752C135.978 19.4752 133.642 17.2359 133.642 14.0529C133.642 11.0835 136.316 9.00144 139.214 9.00144C142.112 9.00144 144.786 11.0835 144.786 14.0529ZM136.368 14.0754C136.368 15.7605 137.652 17.0075 139.214 17.0075C140.772 17.0075 142.06 15.7605 142.06 14.0754C142.06 12.7161 140.772 11.4729 139.214 11.4729C137.652 11.4729 136.368 12.7124 136.368 14.0754ZM138.622 8.33864L137.54 7.571L139.424 5.32422L140.91 6.36897L138.622 8.33864Z" fill="#131313"/>
<path d="M145.733 9.32666H148.354L153.151 15.333H153.177V9.32666H155.799V19.1488H153.177L148.377 13.1275H148.354V19.1488H145.733V9.32666Z" fill="#131313"/>
<path d="M47.6015 21.9917H46.4819V31.7951H47.6015V21.9917Z" fill="#131313"/>
<path d="M50.2413 21.5684L58.0863 29.5856V21.9915H59.2097V32.2331L51.3647 24.242V31.7912H50.2413V21.5684Z" fill="#131313"/>
<path d="M64.5046 31.7951H63.3812V23.0027H60.9547V21.9917H66.9574V23.0027H64.5046V31.7951Z" fill="#131313"/>
<path d="M68.6388 21.9917H73.8551V23.0027H69.7584V25.9161H73.7315V26.9271H69.7584V30.7841H73.8551V31.7951H68.6388V21.9917Z" fill="#131313"/>
<path d="M77.4161 31.7951H76.3002V21.9917H77.7494C79.6629 21.9917 81.4304 22.486 81.4304 24.6916C81.4304 26.1969 80.4605 27.2641 78.914 27.3952L82.1156 31.7914H80.7451L77.7007 27.4888H77.4199V31.7914L77.4161 31.7951ZM77.4161 26.5264H77.7644C79.0301 26.5264 80.3107 26.2943 80.3107 24.7665C80.3107 23.1563 79.0937 22.999 77.7494 22.999H77.4161V26.5264Z" fill="#131313"/>
<path d="M84.1265 21.5684L91.9678 29.5856V21.9915H93.0912V32.2331L85.2424 24.242V31.7912H84.1265V21.5684Z" fill="#131313"/>
<path d="M97.2292 29.0119L96.0122 31.7904H94.7839L99.4235 21.5151L103.947 31.7904H102.708L101.524 29.0119H97.2292ZM99.3973 24.0652L97.6785 27.9933H101.082L99.3973 24.0652Z" fill="#131313"/>
<path d="M113.249 24.1296C112.447 23.3245 111.339 22.834 110.182 22.834C107.939 22.834 106.122 24.7325 106.122 26.8894C106.122 29.0501 107.95 30.9448 110.208 30.9448C111.339 30.9448 112.447 30.4281 113.249 29.6492V31.001C112.38 31.6151 111.309 31.9634 110.249 31.9634C107.407 31.9634 105.007 29.7054 105.007 26.9268C105.007 24.1184 107.366 21.8154 110.249 21.8154C111.369 21.8154 112.354 22.13 113.249 22.7778V24.1296Z" fill="#131313"/>
<path d="M116.821 21.9917H115.701V31.7951H116.821V21.9917Z" fill="#131313"/>
<path d="M129.373 26.9044C129.373 29.7278 127.003 31.9671 124.134 31.9671C121.266 31.9671 118.888 29.7278 118.888 26.9044C118.888 24.0922 121.266 21.8154 124.134 21.8154C127.003 21.8154 129.373 24.0922 129.373 26.9044ZM120.008 26.8894C120.008 29.095 121.85 30.9448 124.131 30.9448C126.411 30.9448 128.253 29.0987 128.253 26.8894C128.253 24.6651 126.433 22.834 124.131 22.834C121.824 22.834 120.008 24.6651 120.008 26.8894Z" fill="#131313"/>
<path d="M131.496 21.5684L139.341 29.5856V21.9915H140.457V32.2331L132.612 24.242V31.7912H131.496V21.5684Z" fill="#131313"/>
<path d="M144.595 29.0119L143.378 31.7904H142.157L146.797 21.5151L151.316 31.7904H150.073L148.886 29.0119H144.595ZM146.767 24.0652L145.048 27.9933H148.452L146.767 24.0652Z" fill="#131313"/>
<path d="M154.069 30.7841H156.84V31.7951H152.942V21.9917H154.069V30.7841Z" fill="#131313"/>
</g>
<defs>
<clipPath id="clip0_0_351">
<rect width="156.84" height="38.4498" fill="white" transform="translate(0 0.759277)"/>
</clipPath>
</defs>
</svg>
