<svg width="40" height="40" viewBox="0 0 40 40" fill="none" xmlns="http://www.w3.org/2000/svg">
<path fill-rule="evenodd" clip-rule="evenodd" d="M20.0151 0.759766C20.0937 0.887083 20.2211 0.81968 20.3222 0.81968C23.4077 0.894572 26.2986 1.68094 29.0172 3.10016C30.8221 4.03632 32.4211 5.23834 33.8552 6.6613C34.0425 6.84853 34.1249 6.94589 33.8665 7.1818C31.6234 9.25258 29.298 11.2073 26.9502 13.1545C24.3476 15.3076 21.6964 17.4009 19.019 19.4567C15.016 22.5423 10.8595 25.4181 6.59061 28.133C5.56458 28.7808 4.53481 29.4249 3.49755 30.0765C3.08938 30.3236 3.08564 30.3161 2.84224 29.9267C1.42302 27.6649 0.513079 25.2272 0.176063 22.6134C-0.520438 17.2099 0.808905 12.3119 4.28392 8.03183C7.17477 4.48942 10.9419 2.23889 15.4729 1.23908C16.63 0.984443 17.8133 0.823424 19.0115 0.823424C19.0827 0.823424 19.1688 0.864615 19.2138 0.759766H20.0151Z" fill="#131313"/>
<path fill-rule="evenodd" clip-rule="evenodd" d="M11.8552 37.6027C12.8737 37.0672 13.8323 36.4718 14.761 35.839C17.019 34.2925 19.1684 32.6074 21.2542 30.8661C23.3362 29.1324 25.3471 27.3237 27.2756 25.4364C28.3952 24.3243 29.4849 23.1859 30.5334 22.0138C30.6382 21.8977 30.7543 21.7891 30.7805 21.6319C30.818 21.3585 30.773 21.1039 30.4922 20.9616C30.2151 20.823 29.9342 20.8567 29.7245 21.0814C28.7135 22.1112 27.6126 23.0436 26.5154 23.9835C24.8753 25.3952 23.1827 26.7545 21.4826 28.0914C18.7079 30.267 15.8432 32.334 12.8513 34.2325C11.7503 34.929 10.6344 35.6031 9.52977 36.2958C9.42492 36.3595 9.35003 36.3595 9.26016 36.2958C8.94935 36.0974 8.6348 35.8914 8.28281 35.663C8.67974 35.4421 9.04297 35.2511 9.39871 35.0414C11.9638 33.5585 14.3416 31.8322 16.6745 30.0236C20.2656 27.2526 23.7144 24.3205 27.0097 21.2237C29.1741 19.1904 31.2449 17.0709 33.2258 14.8653C33.3456 14.7305 33.4954 14.6032 33.5291 14.4122C33.574 14.1276 33.5029 13.8917 33.222 13.7569C32.9412 13.6071 32.6641 13.6633 32.4207 13.9179C31.7841 14.592 31.0988 15.2211 30.4098 15.8389C25.729 19.9618 20.8573 23.8599 15.7833 27.5072C12.7277 29.7053 9.57845 31.7611 6.33186 33.6821C6.1259 33.8094 5.99484 33.8431 5.81884 33.6334C5.59042 33.3675 5.33204 33.1166 5.07741 32.8807C4.95758 32.7646 4.92388 32.6935 5.10736 32.5999C8.32025 30.941 11.2373 28.8515 14.1057 26.7058C16.5959 24.8448 19.0074 22.8901 21.3778 20.8979C24.7367 18.0707 27.987 15.1349 31.0951 12.0606C32.3645 10.7987 33.6152 9.518 34.8135 8.20363C34.967 8.03138 35.0494 7.99768 35.2067 8.20363C37.1501 10.6863 38.4608 13.4461 39.0374 16.5354C39.2996 17.9734 39.4231 19.415 39.3482 20.8792C39.1123 25.0919 37.6669 28.8515 34.9296 32.1243C32.0649 35.5319 28.4139 37.7225 24.0215 38.7261C22.3776 39.0968 20.7 39.2541 19.0112 39.1942C16.5921 39.1006 14.2592 38.61 12.0237 37.6926C11.9713 37.6739 11.9263 37.6402 11.8477 37.6027" fill="#131313"/>
</svg>
