<svg width="208" height="34" viewBox="0 0 208 34" fill="none" xmlns="http://www.w3.org/2000/svg">
<g clip-path="url(#clip0_0_380)">
<path d="M76.955 6.54492H75.9448V15.3186H76.955V6.54492Z" fill="#131313"/>
<path d="M80.6055 6.54492H81.552L87.2017 13.5741V6.54492H88.1864V15.3186H87.3799L81.5945 8.12393V15.3186H80.6055V6.54492Z" fill="#131313"/>
<path d="M94.1119 7.45752H91.1024V6.54492H98.1443V7.45752H95.1348V15.3186H94.1119V7.45752Z" fill="#131313"/>
<path d="M101.064 6.54492H107.542V7.44479H102.075V10.4415H106.964V11.3456H102.075V14.4145H107.605V15.3186H101.064V6.54492Z" fill="#131313"/>
<path d="M110.666 6.54526H114.52C115.619 6.54526 116.507 6.8721 117.067 7.4239C117.504 7.84837 117.759 8.46384 117.759 9.15147V9.17694C117.759 10.6286 116.736 11.4818 115.327 11.7322L118.081 15.3147H116.838L114.24 11.9062H111.68V15.3147H110.666V6.54102V6.54526ZM114.431 11.0191C115.776 11.0191 116.736 10.3442 116.736 9.21514V9.18967C116.736 8.11153 115.891 7.45786 114.444 7.45786H111.68V11.0191H114.431Z" fill="#131313"/>
<path d="M120.946 6.54492H121.893L127.538 13.5741V6.54492H128.523V15.3186H127.717L121.931 8.12393V15.3186H120.946V6.54492Z" fill="#131313"/>
<path d="M135.399 6.48145H136.35L140.434 15.3146H139.347L138.299 12.997H133.421L132.356 15.3146H131.32L135.404 6.48145H135.399ZM137.895 12.1098L135.862 7.63599L133.816 12.1098H137.9H137.895Z" fill="#131313"/>
<path d="M144.436 7.45752H141.427V6.54492H148.468V7.45752H145.459V15.3186H144.436V7.45752Z" fill="#131313"/>
<path d="M152.488 6.54492H151.478V15.3186H152.488V6.54492Z" fill="#131313"/>
<path d="M155.74 10.9551V10.9296C155.74 8.51017 157.599 6.39209 160.324 6.39209C163.049 6.39209 164.878 8.4847 164.878 10.9041V10.9296C164.878 13.3448 163.023 15.4671 160.294 15.4671C157.569 15.4671 155.735 13.3745 155.735 10.9551M163.83 10.9551V10.9296C163.83 8.93888 162.344 7.30893 160.298 7.30893C158.248 7.30893 156.788 8.91341 156.788 10.9041V10.9296C156.788 12.9204 158.274 14.5503 160.324 14.5503C162.37 14.5503 163.83 12.9458 163.83 10.9551Z" fill="#131313"/>
<path d="M168.045 6.54492H168.991L174.637 13.5741V6.54492H175.622V15.3186H174.815L169.03 8.12393V15.3186H168.045V6.54492Z" fill="#131313"/>
<path d="M182.498 6.48145H183.445L187.528 15.3146H186.441L185.393 12.997H180.516L179.455 15.3146H178.419L182.502 6.48145H182.498ZM184.994 12.1098L182.961 7.63599L180.91 12.1098H184.994Z" fill="#131313"/>
<path d="M190.321 6.54492H191.331V14.4018H196.374V15.3186H190.321V6.54492Z" fill="#131313"/>
<path d="M78.1729 24.9413L75.4478 21.0659H76.3477L78.5592 24.2749L80.7876 21.0659H81.6493L78.9242 24.9328V27.4838H78.1729V24.9413Z" fill="#131313"/>
<path d="M82.7277 24.2914V24.2744C82.7277 22.5044 84.086 20.9551 86.081 20.9551C88.0759 20.9551 89.4172 22.4874 89.4172 24.2574V24.2744C89.4172 26.0444 88.059 27.5937 86.064 27.5937C84.069 27.5937 82.7277 26.0614 82.7277 24.2914ZM88.649 24.2914V24.2744C88.649 22.8142 87.5623 21.6215 86.064 21.6215C84.5656 21.6215 83.496 22.7973 83.496 24.2532V24.2701C83.496 25.7261 84.5826 26.9188 86.081 26.9188C87.5793 26.9188 88.649 25.7473 88.649 24.2871" fill="#131313"/>
<path d="M91.6285 24.797V21.0659H92.3671V24.7503C92.3671 26.134 93.1184 26.915 94.3706 26.915C95.5803 26.915 96.3486 26.2019 96.3486 24.797V21.0659H97.0872V24.7418C97.0872 26.6137 95.992 27.5857 94.3536 27.5857C92.7321 27.5857 91.6285 26.6137 91.6285 24.797Z" fill="#131313"/>
<path d="M101.324 21.7323H99.1249V21.0659H104.278V21.7323H102.075V27.4838H101.324V21.7323Z" fill="#131313"/>
<path d="M106.413 21.0659H107.151V23.9141H110.937V21.0659H111.68V27.4838H110.937V24.5932H107.151V27.4838H106.413V21.0659Z" fill="#131313"/>
<path d="M117.551 24.2914V24.2744C117.551 22.4577 118.939 20.9551 120.87 20.9551C122.059 20.9551 122.772 21.3668 123.425 21.9738L122.92 22.5086C122.368 21.995 121.749 21.6257 120.862 21.6257C119.41 21.6257 118.323 22.7845 118.323 24.2574V24.2744C118.323 25.76 119.423 26.923 120.862 26.923C121.762 26.923 122.352 26.5835 122.98 25.9977L123.468 26.4646C122.784 27.1438 122.033 27.5937 120.845 27.5937C118.952 27.5937 117.555 26.1335 117.555 24.2914" fill="#131313"/>
<path d="M125.03 24.2914V24.2744C125.03 22.5044 126.388 20.9551 128.383 20.9551C130.378 20.9551 131.719 22.4874 131.719 24.2574V24.2744C131.719 26.0444 130.361 27.5937 128.366 27.5937C126.371 27.5937 125.03 26.0614 125.03 24.2914ZM130.951 24.2914V24.2744C130.951 22.8142 129.864 21.6215 128.366 21.6215C126.868 21.6215 125.798 22.7973 125.798 24.2532V24.2701C125.798 25.7261 126.885 26.9188 128.383 26.9188C129.881 26.9188 130.951 25.7473 130.951 24.2871" fill="#131313"/>
<path d="M133.74 24.2914V24.2744C133.74 22.5044 135.098 20.9551 137.093 20.9551C139.088 20.9551 140.43 22.4874 140.43 24.2574V24.2744C140.43 26.0444 139.071 27.5937 137.076 27.5937C135.081 27.5937 133.74 26.0614 133.74 24.2914ZM139.666 24.2914V24.2744C139.666 22.8142 138.579 21.6215 137.081 21.6215C135.582 21.6215 134.513 22.7973 134.513 24.2532V24.2701C134.513 25.7261 135.599 26.9188 137.098 26.9188C138.596 26.9188 139.666 25.7473 139.666 24.2871" fill="#131313"/>
<path d="M142.747 21.0659H145.2C146.677 21.0659 147.654 21.8342 147.654 23.1033V23.1203C147.654 24.5041 146.474 25.2214 145.077 25.2214H143.485V27.4881H142.747V21.0702V21.0659ZM145.107 24.5593C146.193 24.5593 146.907 23.9905 146.907 23.1458V23.1288C146.907 22.212 146.202 21.7323 145.145 21.7323H143.49V24.5593H145.111H145.107Z" fill="#131313"/>
<path d="M149.755 21.0659H154.496V21.7238H150.493V23.9141H154.072V24.5762H150.493V26.8217H154.543V27.4838H149.755V21.0659Z" fill="#131313"/>
<path d="M156.779 21.0659H159.602C160.409 21.0659 161.054 21.3036 161.466 21.7069C161.784 22.0167 161.971 22.4667 161.971 22.9718V22.9887C161.971 24.0541 161.219 24.6781 160.192 24.8606L162.208 27.4838H161.3L159.398 24.988H157.526V27.4838H156.784V21.0659H156.779ZM159.534 24.3385C160.519 24.3385 161.219 23.8419 161.219 23.0185V22.9972C161.219 22.2077 160.6 21.7323 159.543 21.7323H157.518V24.3385H159.534Z" fill="#131313"/>
<path d="M166.729 21.019H167.421L170.409 27.4836H169.611L168.843 25.7858H165.273L164.496 27.4836H163.737L166.725 21.019H166.729ZM168.558 25.1363L167.069 21.8637L165.57 25.1363H168.558Z" fill="#131313"/>
<path d="M173.342 21.7323H171.144V21.0659H176.297V21.7323H174.094V27.4838H173.342V21.7323Z" fill="#131313"/>
<path d="M179.238 21.0659H178.5V27.4838H179.238V21.0659Z" fill="#131313"/>
<path d="M181.619 24.2914V24.2744C181.619 22.5044 182.978 20.9551 184.972 20.9551C186.967 20.9551 188.309 22.4874 188.309 24.2574V24.2744C188.309 26.0444 186.951 27.5937 184.956 27.5937C182.961 27.5937 181.619 26.0614 181.619 24.2914ZM187.541 24.2914V24.2744C187.541 22.8142 186.454 21.6215 184.956 21.6215C183.457 21.6215 182.388 22.7973 182.388 24.2532V24.2701C182.388 25.7261 183.474 26.9188 184.972 26.9188C186.471 26.9188 187.541 25.7473 187.541 24.2871" fill="#131313"/>
<path d="M190.622 21.0659H191.314L195.448 26.2104V21.0659H196.17V27.4838H195.58L191.344 22.2205V27.4838H190.622V21.0659Z" fill="#131313"/>
<path d="M207.38 33.7318H200.143V31.9151H205.525V2.05401H200.143V0.237305H207.38V33.7318Z" fill="#131313"/>
<path d="M72.0565 33.7318H64.8194V0.237305H72.0565V2.05401H66.6743V31.9151H72.0565V33.7318Z" fill="#131313"/>
<path d="M6.87148 6.43018H0.839844V27.6152H6.87148V6.43018Z" fill="#131313"/>
<path d="M19.5458 19.6862L11.3197 6.43018H18.1536L22.6062 14.1469L27.0886 6.43018H33.7993L25.5775 19.5971V27.6194H19.5458V19.6862Z" fill="#131313"/>
<path d="M35.3788 17.084V17.0246C35.3788 10.8487 40.2347 6.00977 46.7884 6.00977C51.2071 6.00977 54.0553 7.82647 55.9696 10.4284L51.4576 13.8496C50.2224 12.3385 48.8004 11.3665 46.729 11.3665C43.6983 11.3665 41.5633 13.8793 41.5633 16.9652V17.0246C41.5633 20.1996 43.6983 22.6827 46.729 22.6827C48.9829 22.6827 50.3158 21.6555 51.6146 20.1105L56.1309 23.2558C54.0892 26.0105 51.3345 28.0395 46.5423 28.0395C40.3578 28.0395 35.3831 23.4086 35.3831 17.084" fill="#131313"/>
</g>
<defs>
<clipPath id="clip0_0_380">
<rect width="206.54" height="33.4945" fill="white" transform="translate(0.839966 0.236816)"/>
</clipPath>
</defs>
</svg>
