<svg width="174" height="36" viewBox="0 0 174 36" fill="none" xmlns="http://www.w3.org/2000/svg">
<path d="M4.13574 13.1367C3.5752 13.1367 3.07161 13.0456 2.625 12.8633C2.17839 12.681 1.79785 12.4281 1.4834 12.1045C1.1735 11.7764 0.934245 11.3958 0.765625 10.9629C0.601562 10.5254 0.519531 10.056 0.519531 9.55469V9.28125C0.519531 8.71159 0.601562 8.19434 0.765625 7.72949C0.929688 7.26009 1.16211 6.85677 1.46289 6.51953C1.76367 6.18229 2.1237 5.92253 2.54297 5.74023C2.96224 5.55794 3.4248 5.4668 3.93066 5.4668C4.45475 5.4668 4.91732 5.55566 5.31836 5.7334C5.7194 5.90658 6.05436 6.15267 6.32324 6.47168C6.59212 6.79069 6.79492 7.1735 6.93164 7.62012C7.06836 8.06217 7.13672 8.55208 7.13672 9.08984V9.84863H1.33984V8.60449H5.35938V8.46777C5.35026 8.18066 5.29557 7.91862 5.19531 7.68164C5.09505 7.4401 4.9401 7.2487 4.73047 7.10742C4.52083 6.96159 4.24967 6.88867 3.91699 6.88867C3.64811 6.88867 3.41341 6.94792 3.21289 7.06641C3.01693 7.18034 2.85286 7.3444 2.7207 7.55859C2.5931 7.76823 2.4974 8.01888 2.43359 8.31055C2.36979 8.60221 2.33789 8.92578 2.33789 9.28125V9.55469C2.33789 9.86458 2.37891 10.1517 2.46094 10.416C2.54753 10.6803 2.67285 10.9105 2.83691 11.1064C3.00553 11.2979 3.20605 11.4482 3.43848 11.5576C3.67546 11.6624 3.94434 11.7148 4.24512 11.7148C4.62337 11.7148 4.96517 11.6419 5.27051 11.4961C5.5804 11.3457 5.84928 11.1247 6.07715 10.833L6.98633 11.7764C6.83138 12.0042 6.62174 12.223 6.35742 12.4326C6.09766 12.6423 5.7832 12.8132 5.41406 12.9453C5.04492 13.0729 4.61882 13.1367 4.13574 13.1367ZM10.2572 7.18262V13H8.4525V5.60352H10.1478L10.2572 7.18262ZM9.97008 9.03516H9.43687C9.44143 8.4974 9.51435 8.00977 9.65562 7.57227C9.7969 7.13477 9.99514 6.75879 10.2504 6.44434C10.5101 6.12988 10.8177 5.88835 11.1732 5.71973C11.5287 5.55111 11.9252 5.4668 12.3627 5.4668C12.7181 5.4668 13.0394 5.51693 13.3265 5.61719C13.6136 5.71745 13.8597 5.87695 14.0648 6.0957C14.2744 6.31445 14.4339 6.60156 14.5433 6.95703C14.6573 7.30794 14.7142 7.74089 14.7142 8.25586V13H12.8959V8.24219C12.8959 7.90495 12.8457 7.63835 12.7455 7.44238C12.6498 7.24642 12.5085 7.10742 12.3216 7.02539C12.1393 6.94336 11.9138 6.90234 11.6449 6.90234C11.3669 6.90234 11.1231 6.95931 10.9134 7.07324C10.7084 7.18262 10.5352 7.33529 10.3939 7.53125C10.2572 7.72721 10.1524 7.9528 10.0795 8.20801C10.0065 8.46322 9.97008 8.73893 9.97008 9.03516ZM21.1501 5.60352H22.7907V12.7744C22.7907 13.4443 22.6449 14.0117 22.3532 14.4766C22.0661 14.946 21.6628 15.3014 21.1433 15.543C20.6237 15.7891 20.0199 15.9121 19.3318 15.9121C19.0355 15.9121 18.7142 15.8711 18.3679 15.7891C18.0261 15.707 17.6957 15.5771 17.3767 15.3994C17.0622 15.2262 16.8002 15.0007 16.5905 14.7227L17.404 13.6562C17.6501 13.9434 17.9281 14.1598 18.238 14.3057C18.5479 14.4561 18.8829 14.5312 19.2429 14.5312C19.6075 14.5312 19.9174 14.4629 20.1726 14.3262C20.4323 14.194 20.6306 13.998 20.7673 13.7383C20.9086 13.4831 20.9792 13.1686 20.9792 12.7949V7.29199L21.1501 5.60352ZM16.153 9.39062V9.24707C16.153 8.68197 16.2214 8.16927 16.3581 7.70898C16.4948 7.24414 16.6908 6.84538 16.946 6.5127C17.2058 6.18001 17.518 5.92253 17.8825 5.74023C18.2517 5.55794 18.6664 5.4668 19.1267 5.4668C19.6143 5.4668 20.0245 5.55566 20.3571 5.7334C20.6944 5.91113 20.9724 6.16406 21.1911 6.49219C21.4144 6.82031 21.5876 7.20996 21.7107 7.66113C21.8383 8.10775 21.9362 8.59993 22.0046 9.1377V9.52734C21.9408 10.0514 21.8383 10.5322 21.697 10.9697C21.5603 11.4072 21.378 11.79 21.1501 12.1182C20.9223 12.4417 20.6397 12.6924 20.3025 12.8701C19.9652 13.0479 19.5687 13.1367 19.113 13.1367C18.6573 13.1367 18.2471 13.0433 17.8825 12.8564C17.518 12.6696 17.2058 12.4076 16.946 12.0703C16.6908 11.7331 16.4948 11.3366 16.3581 10.8809C16.2214 10.4251 16.153 9.92839 16.153 9.39062ZM17.9577 9.24707V9.39062C17.9577 9.70964 17.9896 10.0081 18.0534 10.2861C18.1172 10.5641 18.2152 10.8102 18.3474 11.0244C18.4795 11.234 18.6459 11.3981 18.8464 11.5166C19.0469 11.6351 19.2862 11.6943 19.5642 11.6943C19.9379 11.6943 20.2432 11.6169 20.4802 11.4619C20.7217 11.3024 20.904 11.0859 21.0271 10.8125C21.1547 10.5345 21.2367 10.2223 21.2732 9.87598V8.80273C21.2504 8.5293 21.2002 8.27637 21.1228 8.04395C21.0499 7.81152 20.9473 7.611 20.8152 7.44238C20.683 7.27376 20.5144 7.1416 20.3093 7.0459C20.1042 6.9502 19.8604 6.90234 19.5779 6.90234C19.3044 6.90234 19.0652 6.96387 18.8601 7.08691C18.655 7.2054 18.4864 7.37174 18.3542 7.58594C18.2221 7.80013 18.1218 8.0485 18.0534 8.33105C17.9896 8.61361 17.9577 8.91895 17.9577 9.24707ZM28.6319 11.4277V8.0166C28.6319 7.76595 28.5886 7.54948 28.502 7.36719C28.4154 7.1849 28.2833 7.04362 28.1055 6.94336C27.9278 6.8431 27.7022 6.79297 27.4288 6.79297C27.1873 6.79297 26.9753 6.83398 26.793 6.91602C26.6153 6.99805 26.4786 7.11426 26.3829 7.26465C26.2872 7.41048 26.2393 7.5791 26.2393 7.77051H24.4278C24.4278 7.46517 24.5007 7.17578 24.6466 6.90234C24.7924 6.62435 24.9998 6.37826 25.2686 6.16406C25.5421 5.94531 25.8679 5.77441 26.2462 5.65137C26.629 5.52832 27.0574 5.4668 27.5313 5.4668C28.0919 5.4668 28.5909 5.5625 29.0284 5.75391C29.4705 5.94076 29.8168 6.22331 30.0675 6.60156C30.3227 6.97982 30.4503 7.45605 30.4503 8.03027V11.2568C30.4503 11.626 30.4731 11.9427 30.5186 12.207C30.5688 12.4668 30.6417 12.6924 30.7374 12.8838V13H28.8985C28.8119 12.8132 28.7458 12.5762 28.7003 12.2891C28.6547 11.9974 28.6319 11.7103 28.6319 11.4277ZM28.8848 8.49512L28.8985 9.56836H27.7569C27.4744 9.56836 27.226 9.59798 27.0118 9.65723C26.7976 9.71191 26.6221 9.79395 26.4854 9.90332C26.3487 10.0081 26.2462 10.1357 26.1778 10.2861C26.1095 10.432 26.0753 10.5983 26.0753 10.7852C26.0753 10.9674 26.1163 11.1315 26.1983 11.2773C26.2849 11.4232 26.408 11.5394 26.5675 11.626C26.7315 11.708 26.9229 11.749 27.1417 11.749C27.4607 11.749 27.7387 11.6852 27.9757 11.5576C28.2126 11.4255 28.3972 11.266 28.5294 11.0791C28.6615 10.8923 28.7322 10.7145 28.7413 10.5459L29.2608 11.3252C29.197 11.512 29.1013 11.7103 28.9737 11.9199C28.8461 12.1296 28.682 12.3255 28.4815 12.5078C28.281 12.6901 28.0395 12.8405 27.7569 12.959C27.4744 13.0775 27.1462 13.1367 26.7725 13.1367C26.294 13.1367 25.8656 13.041 25.4874 12.8496C25.1091 12.6582 24.8106 12.3962 24.5919 12.0635C24.3731 11.7308 24.2638 11.3525 24.2638 10.9287C24.2638 10.5368 24.3367 10.1904 24.4825 9.88965C24.6283 9.58887 24.8448 9.33594 25.1319 9.13086C25.419 8.92122 25.7745 8.764 26.1983 8.65918C26.6267 8.5498 27.1166 8.49512 27.668 8.49512H28.8848ZM36.9204 5.60352H38.561V12.7744C38.561 13.4443 38.4151 14.0117 38.1235 14.4766C37.8364 14.946 37.433 15.3014 36.9135 15.543C36.394 15.7891 35.7901 15.9121 35.102 15.9121C34.8058 15.9121 34.4845 15.8711 34.1381 15.7891C33.7963 15.707 33.4659 15.5771 33.1469 15.3994C32.8325 15.2262 32.5704 15.0007 32.3608 14.7227L33.1743 13.6562C33.4204 13.9434 33.6983 14.1598 34.0082 14.3057C34.3181 14.4561 34.6531 14.5312 35.0131 14.5312C35.3777 14.5312 35.6876 14.4629 35.9428 14.3262C36.2026 14.194 36.4008 13.998 36.5375 13.7383C36.6788 13.4831 36.7495 13.1686 36.7495 12.7949V7.29199L36.9204 5.60352ZM31.9233 9.39062V9.24707C31.9233 8.68197 31.9916 8.16927 32.1284 7.70898C32.2651 7.24414 32.461 6.84538 32.7162 6.5127C32.976 6.18001 33.2882 5.92253 33.6528 5.74023C34.0219 5.55794 34.4366 5.4668 34.8969 5.4668C35.3845 5.4668 35.7947 5.55566 36.1274 5.7334C36.4646 5.91113 36.7426 6.16406 36.9614 6.49219C37.1847 6.82031 37.3579 7.20996 37.4809 7.66113C37.6085 8.10775 37.7065 8.59993 37.7748 9.1377V9.52734C37.711 10.0514 37.6085 10.5322 37.4672 10.9697C37.3305 11.4072 37.1482 11.79 36.9204 12.1182C36.6925 12.4417 36.4099 12.6924 36.0727 12.8701C35.7355 13.0479 35.339 13.1367 34.8832 13.1367C34.4275 13.1367 34.0174 13.0433 33.6528 12.8564C33.2882 12.6696 32.976 12.4076 32.7162 12.0703C32.461 11.7331 32.2651 11.3366 32.1284 10.8809C31.9916 10.4251 31.9233 9.92839 31.9233 9.39062ZM33.728 9.24707V9.39062C33.728 9.70964 33.7599 10.0081 33.8237 10.2861C33.8875 10.5641 33.9855 10.8102 34.1176 11.0244C34.2498 11.234 34.4161 11.3981 34.6166 11.5166C34.8172 11.6351 35.0564 11.6943 35.3344 11.6943C35.7081 11.6943 36.0134 11.6169 36.2504 11.4619C36.492 11.3024 36.6743 11.0859 36.7973 10.8125C36.9249 10.5345 37.0069 10.2223 37.0434 9.87598V8.80273C37.0206 8.5293 36.9705 8.27637 36.893 8.04395C36.8201 7.81152 36.7176 7.611 36.5854 7.44238C36.4532 7.27376 36.2846 7.1416 36.0795 7.0459C35.8745 6.9502 35.6306 6.90234 35.3481 6.90234C35.0746 6.90234 34.8354 6.96387 34.6303 7.08691C34.4252 7.2054 34.2566 7.37174 34.1245 7.58594C33.9923 7.80013 33.892 8.0485 33.8237 8.33105C33.7599 8.61361 33.728 8.91895 33.728 9.24707ZM43.6502 13.1367C43.0896 13.1367 42.5861 13.0456 42.1395 12.8633C41.6928 12.681 41.3123 12.4281 40.9979 12.1045C40.688 11.7764 40.4487 11.3958 40.2801 10.9629C40.116 10.5254 40.034 10.056 40.034 9.55469V9.28125C40.034 8.71159 40.116 8.19434 40.2801 7.72949C40.4441 7.26009 40.6766 6.85677 40.9773 6.51953C41.2781 6.18229 41.6382 5.92253 42.0574 5.74023C42.4767 5.55794 42.9393 5.4668 43.4451 5.4668C43.9692 5.4668 44.4318 5.55566 44.8328 5.7334C45.2339 5.90658 45.5688 6.15267 45.8377 6.47168C46.1066 6.79069 46.3094 7.1735 46.4461 7.62012C46.5828 8.06217 46.6512 8.55208 46.6512 9.08984V9.84863H40.8543V8.60449H44.8738V8.46777C44.8647 8.18066 44.81 7.91862 44.7098 7.68164C44.6095 7.4401 44.4546 7.2487 44.2449 7.10742C44.0353 6.96159 43.7641 6.88867 43.4314 6.88867C43.1626 6.88867 42.9279 6.94792 42.7273 7.06641C42.5314 7.18034 42.3673 7.3444 42.2352 7.55859C42.1076 7.76823 42.0118 8.01888 41.948 8.31055C41.8842 8.60221 41.8523 8.92578 41.8523 9.28125V9.55469C41.8523 9.86458 41.8934 10.1517 41.9754 10.416C42.062 10.6803 42.1873 10.9105 42.3514 11.1064C42.52 11.2979 42.7205 11.4482 42.9529 11.5576C43.1899 11.6624 43.4588 11.7148 43.7596 11.7148C44.1378 11.7148 44.4796 11.6419 44.785 11.4961C45.0949 11.3457 45.3637 11.1247 45.5916 10.833L46.5008 11.7764C46.3458 12.0042 46.1362 12.223 45.8719 12.4326C45.6121 12.6423 45.2977 12.8132 44.9285 12.9453C44.5594 13.0729 44.1333 13.1367 43.6502 13.1367ZM49.7033 11.373L49.6896 12.624C49.6896 13.1117 49.5688 13.6061 49.3273 14.1074C49.0858 14.6087 48.7736 15.0234 48.3908 15.3516L47.4338 14.8252C47.5568 14.6201 47.6707 14.4128 47.7755 14.2031C47.8849 13.9935 47.9715 13.7656 48.0353 13.5195C48.1037 13.278 48.1379 13.0068 48.1379 12.7061V11.373H49.7033ZM58.0975 11.7148C58.3527 11.7148 58.5806 11.6647 58.7811 11.5645C58.9817 11.4642 59.1412 11.3229 59.2596 11.1406C59.3827 10.9583 59.4488 10.7464 59.4579 10.5049H61.16C61.1509 11.0062 61.0096 11.4551 60.7362 11.8516C60.4628 12.248 60.0982 12.5625 59.6425 12.7949C59.1913 13.0228 58.6854 13.1367 58.1249 13.1367C57.5552 13.1367 57.0585 13.041 56.6346 12.8496C56.2108 12.6582 55.8576 12.3916 55.5751 12.0498C55.2971 11.708 55.0874 11.3115 54.9462 10.8604C54.8095 10.4092 54.7411 9.92611 54.7411 9.41113V9.19238C54.7411 8.67741 54.8095 8.19434 54.9462 7.74316C55.0874 7.29199 55.2971 6.89551 55.5751 6.55371C55.8576 6.21191 56.2108 5.94531 56.6346 5.75391C57.0585 5.5625 57.5529 5.4668 58.118 5.4668C58.7151 5.4668 59.2391 5.58301 59.6903 5.81543C60.146 6.04785 60.5015 6.37598 60.7567 6.7998C61.0165 7.22363 61.1509 7.72266 61.16 8.29688H59.4579C59.4488 8.03255 59.3895 7.79557 59.2802 7.58594C59.1708 7.3763 59.0158 7.20768 58.8153 7.08008C58.6148 6.95247 58.371 6.88867 58.0839 6.88867C57.7785 6.88867 57.5233 6.95247 57.3182 7.08008C57.1177 7.20768 56.9605 7.38314 56.8466 7.60645C56.7372 7.8252 56.6597 8.07129 56.6141 8.34473C56.5731 8.61361 56.5526 8.89616 56.5526 9.19238V9.41113C56.5526 9.71191 56.5731 9.99902 56.6141 10.2725C56.6597 10.5459 56.7372 10.792 56.8466 11.0107C56.9605 11.2249 57.1177 11.3958 57.3182 11.5234C57.5233 11.651 57.7831 11.7148 58.0975 11.7148ZM62.1819 9.37695V9.2334C62.1819 8.69108 62.2593 8.19206 62.4143 7.73633C62.5692 7.27604 62.7948 6.87728 63.0911 6.54004C63.3873 6.2028 63.7496 5.94076 64.178 5.75391C64.6064 5.5625 65.094 5.4668 65.6409 5.4668C66.1968 5.4668 66.689 5.5625 67.1174 5.75391C67.5504 5.94076 67.9149 6.2028 68.2112 6.54004C68.5074 6.87728 68.733 7.27604 68.8879 7.73633C69.0429 8.19206 69.1203 8.69108 69.1203 9.2334V9.37695C69.1203 9.91471 69.0429 10.4137 68.8879 10.874C68.733 11.3298 68.5074 11.7285 68.2112 12.0703C67.9149 12.4076 67.5526 12.6696 67.1243 12.8564C66.6959 13.0433 66.206 13.1367 65.6545 13.1367C65.1077 13.1367 64.6177 13.0433 64.1848 12.8564C63.7519 12.6696 63.3873 12.4076 63.0911 12.0703C62.7948 11.7285 62.5692 11.3298 62.4143 10.874C62.2593 10.4137 62.1819 9.91471 62.1819 9.37695ZM63.9866 9.2334V9.37695C63.9866 9.70052 64.0185 10.0036 64.0823 10.2861C64.1461 10.5687 64.244 10.8171 64.3762 11.0312C64.5084 11.2454 64.6793 11.4141 64.8889 11.5371C65.1031 11.6556 65.3583 11.7148 65.6545 11.7148C65.9462 11.7148 66.1968 11.6556 66.4065 11.5371C66.6161 11.4141 66.787 11.2454 66.9192 11.0312C67.0559 10.8171 67.1562 10.5687 67.22 10.2861C67.2838 10.0036 67.3157 9.70052 67.3157 9.37695V9.2334C67.3157 8.91439 67.2838 8.61589 67.22 8.33789C67.1562 8.05534 67.0559 7.80697 66.9192 7.59277C66.787 7.37402 66.6138 7.20312 66.3996 7.08008C66.19 6.95247 65.9371 6.88867 65.6409 6.88867C65.3492 6.88867 65.0985 6.95247 64.8889 7.08008C64.6793 7.20312 64.5084 7.37402 64.3762 7.59277C64.244 7.80697 64.1461 8.05534 64.0823 8.33789C64.0185 8.61589 63.9866 8.91439 63.9866 9.2334ZM72.3434 7.18262V13H70.5387V5.60352H72.234L72.3434 7.18262ZM72.0563 9.03516H71.523C71.5276 8.4974 71.6005 8.00977 71.7418 7.57227C71.8831 7.13477 72.0813 6.75879 72.3365 6.44434C72.5963 6.12988 72.9039 5.88835 73.2594 5.71973C73.6148 5.55111 74.0113 5.4668 74.4488 5.4668C74.8043 5.4668 75.1256 5.51693 75.4127 5.61719C75.6998 5.71745 75.9459 5.87695 76.151 6.0957C76.3606 6.31445 76.5201 6.60156 76.6295 6.95703C76.7434 7.30794 76.8004 7.74089 76.8004 8.25586V13H74.982V8.24219C74.982 7.90495 74.9319 7.63835 74.8316 7.44238C74.7359 7.24642 74.5947 7.10742 74.4078 7.02539C74.2255 6.94336 73.9999 6.90234 73.7311 6.90234C73.4531 6.90234 73.2092 6.95931 72.9996 7.07324C72.7945 7.18262 72.6214 7.33529 72.4801 7.53125C72.3434 7.72721 72.2385 7.9528 72.1656 8.20801C72.0927 8.46322 72.0563 8.73893 72.0563 9.03516ZM80.3037 7.18262V13H78.499V5.60352H80.1943L80.3037 7.18262ZM80.0166 9.03516H79.4834C79.4879 8.4974 79.5608 8.00977 79.7021 7.57227C79.8434 7.13477 80.0416 6.75879 80.2968 6.44434C80.5566 6.12988 80.8642 5.88835 81.2197 5.71973C81.5752 5.55111 81.9716 5.4668 82.4091 5.4668C82.7646 5.4668 83.0859 5.51693 83.373 5.61719C83.6601 5.71745 83.9062 5.87695 84.1113 6.0957C84.3209 6.31445 84.4804 6.60156 84.5898 6.95703C84.7037 7.30794 84.7607 7.74089 84.7607 8.25586V13H82.9423V8.24219C82.9423 7.90495 82.8922 7.63835 82.792 7.44238C82.6963 7.24642 82.555 7.10742 82.3681 7.02539C82.1858 6.94336 81.9602 6.90234 81.6914 6.90234C81.4134 6.90234 81.1696 6.95931 80.9599 7.07324C80.7548 7.18262 80.5817 7.33529 80.4404 7.53125C80.3037 7.72721 80.1989 7.9528 80.1259 8.20801C80.053 8.46322 80.0166 8.73893 80.0166 9.03516ZM89.8157 13.1367C89.2552 13.1367 88.7516 13.0456 88.305 12.8633C87.8584 12.681 87.4779 12.4281 87.1634 12.1045C86.8535 11.7764 86.6142 11.3958 86.4456 10.9629C86.2816 10.5254 86.1995 10.056 86.1995 9.55469V9.28125C86.1995 8.71159 86.2816 8.19434 86.4456 7.72949C86.6097 7.26009 86.8421 6.85677 87.1429 6.51953C87.4437 6.18229 87.8037 5.92253 88.223 5.74023C88.6422 5.55794 89.1048 5.4668 89.6107 5.4668C90.1348 5.4668 90.5973 5.55566 90.9984 5.7334C91.3994 5.90658 91.7344 6.15267 92.0032 6.47168C92.2721 6.79069 92.4749 7.1735 92.6116 7.62012C92.7484 8.06217 92.8167 8.55208 92.8167 9.08984V9.84863H87.0198V8.60449H91.0394V8.46777C91.0303 8.18066 90.9756 7.91862 90.8753 7.68164C90.7751 7.4401 90.6201 7.2487 90.4105 7.10742C90.2008 6.96159 89.9297 6.88867 89.597 6.88867C89.3281 6.88867 89.0934 6.94792 88.8929 7.06641C88.6969 7.18034 88.5329 7.3444 88.4007 7.55859C88.2731 7.76823 88.1774 8.01888 88.1136 8.31055C88.0498 8.60221 88.0179 8.92578 88.0179 9.28125V9.55469C88.0179 9.86458 88.0589 10.1517 88.1409 10.416C88.2275 10.6803 88.3529 10.9105 88.5169 11.1064C88.6855 11.2979 88.8861 11.4482 89.1185 11.5576C89.3555 11.6624 89.6243 11.7148 89.9251 11.7148C90.3034 11.7148 90.6452 11.6419 90.9505 11.4961C91.2604 11.3457 91.5293 11.1247 91.7571 10.833L92.6663 11.7764C92.5114 12.0042 92.3017 12.223 92.0374 12.4326C91.7777 12.6423 91.4632 12.8132 91.0941 12.9453C90.7249 13.0729 90.2988 13.1367 89.8157 13.1367ZM97.2018 11.7148C97.457 11.7148 97.6849 11.6647 97.8854 11.5645C98.086 11.4642 98.2455 11.3229 98.3639 11.1406C98.487 10.9583 98.5531 10.7464 98.5622 10.5049H100.264C100.255 11.0062 100.114 11.4551 99.8405 11.8516C99.5671 12.248 99.2025 12.5625 98.7468 12.7949C98.2956 13.0228 97.7897 13.1367 97.2292 13.1367C96.6595 13.1367 96.1628 13.041 95.7389 12.8496C95.3151 12.6582 94.9619 12.3916 94.6794 12.0498C94.4014 11.708 94.1917 11.3115 94.0505 10.8604C93.9137 10.4092 93.8454 9.92611 93.8454 9.41113V9.19238C93.8454 8.67741 93.9137 8.19434 94.0505 7.74316C94.1917 7.29199 94.4014 6.89551 94.6794 6.55371C94.9619 6.21191 95.3151 5.94531 95.7389 5.75391C96.1628 5.5625 96.6572 5.4668 97.2223 5.4668C97.8193 5.4668 98.3434 5.58301 98.7946 5.81543C99.2503 6.04785 99.6058 6.37598 99.861 6.7998C100.121 7.22363 100.255 7.72266 100.264 8.29688H98.5622C98.5531 8.03255 98.4938 7.79557 98.3845 7.58594C98.2751 7.3763 98.1201 7.20768 97.9196 7.08008C97.7191 6.95247 97.4753 6.88867 97.1882 6.88867C96.8828 6.88867 96.6276 6.95247 96.4225 7.08008C96.222 7.20768 96.0648 7.38314 95.9509 7.60645C95.8415 7.8252 95.764 8.07129 95.7184 8.34473C95.6774 8.61361 95.6569 8.89616 95.6569 9.19238V9.41113C95.6569 9.71191 95.6774 9.99902 95.7184 10.2725C95.764 10.5459 95.8415 10.792 95.9509 11.0107C96.0648 11.2249 96.222 11.3958 96.4225 11.5234C96.6276 11.651 96.8874 11.7148 97.2018 11.7148ZM105.107 5.60352V6.90234H100.869V5.60352H105.107ZM102.004 3.78516H103.815V10.8672C103.815 11.0859 103.845 11.2546 103.904 11.373C103.964 11.4915 104.052 11.5713 104.171 11.6123C104.289 11.6533 104.431 11.6738 104.595 11.6738C104.713 11.6738 104.823 11.667 104.923 11.6533C105.023 11.6396 105.107 11.626 105.176 11.6123L105.183 12.9658C105.032 13.016 104.861 13.057 104.67 13.0889C104.483 13.1208 104.271 13.1367 104.034 13.1367C103.629 13.1367 103.273 13.0684 102.968 12.9316C102.662 12.7904 102.425 12.5648 102.257 12.2549C102.088 11.9404 102.004 11.5257 102.004 11.0107V3.78516ZM108.153 11.373L108.139 12.624C108.139 13.1117 108.018 13.6061 107.777 14.1074C107.535 14.6087 107.223 15.0234 106.84 15.3516L105.883 14.8252C106.006 14.6201 106.12 14.4128 106.225 14.2031C106.334 13.9935 106.421 13.7656 106.485 13.5195C106.553 13.278 106.587 13.0068 106.587 12.7061V11.373H108.153ZM116.834 13.1367C116.274 13.1367 115.77 13.0456 115.323 12.8633C114.877 12.681 114.496 12.4281 114.182 12.1045C113.872 11.7764 113.633 11.3958 113.464 10.9629C113.3 10.5254 113.218 10.056 113.218 9.55469V9.28125C113.218 8.71159 113.3 8.19434 113.464 7.72949C113.628 7.26009 113.86 6.85677 114.161 6.51953C114.462 6.18229 114.822 5.92253 115.241 5.74023C115.661 5.55794 116.123 5.4668 116.629 5.4668C117.153 5.4668 117.616 5.55566 118.017 5.7334C118.418 5.90658 118.753 6.15267 119.022 6.47168C119.29 6.79069 119.493 7.1735 119.63 7.62012C119.767 8.06217 119.835 8.55208 119.835 9.08984V9.84863H114.038V8.60449H118.058V8.46777C118.049 8.18066 117.994 7.91862 117.894 7.68164C117.793 7.4401 117.638 7.2487 117.429 7.10742C117.219 6.96159 116.948 6.88867 116.615 6.88867C116.346 6.88867 116.112 6.94792 115.911 7.06641C115.715 7.18034 115.551 7.3444 115.419 7.55859C115.291 7.76823 115.196 8.01888 115.132 8.31055C115.068 8.60221 115.036 8.92578 115.036 9.28125V9.55469C115.036 9.86458 115.077 10.1517 115.159 10.416C115.246 10.6803 115.371 10.9105 115.535 11.1064C115.704 11.2979 115.904 11.4482 116.137 11.5576C116.374 11.6624 116.643 11.7148 116.943 11.7148C117.322 11.7148 117.664 11.6419 117.969 11.4961C118.279 11.3457 118.548 11.1247 118.776 10.833L119.685 11.7764C119.53 12.0042 119.32 12.223 119.056 12.4326C118.796 12.6423 118.482 12.8132 118.112 12.9453C117.743 13.0729 117.317 13.1367 116.834 13.1367ZM122.983 7.12109V13H121.178V5.60352H122.88L122.983 7.12109ZM122.716 9.03516H122.163C122.163 8.52018 122.224 8.04622 122.347 7.61328C122.475 7.18034 122.662 6.80436 122.908 6.48535C123.154 6.16178 123.457 5.91113 123.817 5.7334C124.181 5.55566 124.603 5.4668 125.082 5.4668C125.414 5.4668 125.72 5.51693 125.998 5.61719C126.276 5.71289 126.515 5.86556 126.715 6.0752C126.92 6.28027 127.078 6.54915 127.187 6.88184C127.296 7.20996 127.351 7.60417 127.351 8.06445V13H125.546V8.24902C125.546 7.90267 125.496 7.63151 125.396 7.43555C125.3 7.23958 125.161 7.10286 124.979 7.02539C124.797 6.94336 124.578 6.90234 124.323 6.90234C124.04 6.90234 123.796 6.95931 123.591 7.07324C123.391 7.18262 123.224 7.33529 123.092 7.53125C122.965 7.72721 122.869 7.9528 122.805 8.20801C122.746 8.46322 122.716 8.73893 122.716 9.03516ZM127.214 8.7002L126.469 8.83691C126.474 8.37207 126.538 7.93685 126.661 7.53125C126.784 7.12109 126.964 6.76335 127.201 6.45801C127.442 6.14811 127.741 5.90658 128.096 5.7334C128.456 5.55566 128.871 5.4668 129.34 5.4668C129.705 5.4668 130.033 5.51921 130.325 5.62402C130.621 5.72428 130.874 5.88607 131.083 6.10938C131.293 6.32812 131.453 6.61296 131.562 6.96387C131.676 7.31478 131.733 7.74316 131.733 8.24902V13H129.915V8.24219C129.915 7.88216 129.864 7.60645 129.764 7.41504C129.668 7.22363 129.529 7.09147 129.347 7.01855C129.165 6.94108 128.951 6.90234 128.705 6.90234C128.454 6.90234 128.235 6.9502 128.048 7.0459C127.866 7.13704 127.711 7.26465 127.583 7.42871C127.46 7.59277 127.367 7.78418 127.303 8.00293C127.244 8.21712 127.214 8.44954 127.214 8.7002ZM135.298 7.02539V15.8438H133.486V5.60352H135.161L135.298 7.02539ZM140.049 9.22656V9.37012C140.049 9.90788 139.985 10.4069 139.857 10.8672C139.734 11.3229 139.552 11.7217 139.31 12.0635C139.069 12.4007 138.768 12.665 138.408 12.8564C138.053 13.0433 137.642 13.1367 137.178 13.1367C136.722 13.1367 136.325 13.0501 135.988 12.877C135.651 12.6992 135.366 12.4486 135.134 12.125C134.901 11.8014 134.714 11.4255 134.573 10.9971C134.436 10.5641 134.334 10.0924 134.265 9.58203V9.12402C134.334 8.58171 134.436 8.08952 134.573 7.64746C134.714 7.20085 134.901 6.81576 135.134 6.49219C135.366 6.16406 135.649 5.91113 135.981 5.7334C136.319 5.55566 136.713 5.4668 137.164 5.4668C137.633 5.4668 138.046 5.55566 138.401 5.7334C138.761 5.91113 139.064 6.16634 139.31 6.49902C139.556 6.83171 139.741 7.22819 139.864 7.68848C139.987 8.14876 140.049 8.66146 140.049 9.22656ZM138.237 9.37012V9.22656C138.237 8.89844 138.208 8.59538 138.148 8.31738C138.089 8.03483 137.998 7.78874 137.875 7.5791C137.752 7.36491 137.592 7.19857 137.396 7.08008C137.2 6.96159 136.963 6.90234 136.685 6.90234C136.407 6.90234 136.168 6.94792 135.968 7.03906C135.767 7.13021 135.603 7.26009 135.475 7.42871C135.348 7.59733 135.248 7.79785 135.175 8.03027C135.106 8.25814 135.061 8.51107 135.038 8.78906V9.92383C135.079 10.2611 135.159 10.5641 135.277 10.833C135.396 11.1019 135.569 11.3161 135.797 11.4756C136.029 11.6351 136.33 11.7148 136.699 11.7148C136.977 11.7148 137.214 11.6533 137.41 11.5303C137.606 11.4072 137.765 11.2386 137.889 11.0244C138.012 10.8057 138.1 10.555 138.155 10.2725C138.21 9.98991 138.237 9.68913 138.237 9.37012ZM141.187 9.37695V9.2334C141.187 8.69108 141.264 8.19206 141.419 7.73633C141.574 7.27604 141.8 6.87728 142.096 6.54004C142.392 6.2028 142.754 5.94076 143.183 5.75391C143.611 5.5625 144.099 5.4668 144.646 5.4668C145.202 5.4668 145.694 5.5625 146.122 5.75391C146.555 5.94076 146.92 6.2028 147.216 6.54004C147.512 6.87728 147.738 7.27604 147.893 7.73633C148.048 8.19206 148.125 8.69108 148.125 9.2334V9.37695C148.125 9.91471 148.048 10.4137 147.893 10.874C147.738 11.3298 147.512 11.7285 147.216 12.0703C146.92 12.4076 146.557 12.6696 146.129 12.8564C145.701 13.0433 145.211 13.1367 144.659 13.1367C144.113 13.1367 143.623 13.0433 143.19 12.8564C142.757 12.6696 142.392 12.4076 142.096 12.0703C141.8 11.7285 141.574 11.3298 141.419 10.874C141.264 10.4137 141.187 9.91471 141.187 9.37695ZM142.991 9.2334V9.37695C142.991 9.70052 143.023 10.0036 143.087 10.2861C143.151 10.5687 143.249 10.8171 143.381 11.0312C143.513 11.2454 143.684 11.4141 143.894 11.5371C144.108 11.6556 144.363 11.7148 144.659 11.7148C144.951 11.7148 145.202 11.6556 145.411 11.5371C145.621 11.4141 145.792 11.2454 145.924 11.0312C146.061 10.8171 146.161 10.5687 146.225 10.2861C146.289 10.0036 146.321 9.70052 146.321 9.37695V9.2334C146.321 8.91439 146.289 8.61589 146.225 8.33789C146.161 8.05534 146.061 7.80697 145.924 7.59277C145.792 7.37402 145.619 7.20312 145.404 7.08008C145.195 6.95247 144.942 6.88867 144.646 6.88867C144.354 6.88867 144.103 6.95247 143.894 7.08008C143.684 7.20312 143.513 7.37402 143.381 7.59277C143.249 7.80697 143.151 8.05534 143.087 8.33789C143.023 8.61589 142.991 8.91439 142.991 9.2334ZM151.635 11.2227L153.255 5.60352H154.404L154.062 7.54492L152.428 13H151.437L151.635 11.2227ZM150.74 5.60352L151.957 11.2363L152.066 13H150.924L148.983 5.60352H150.74ZM155.908 11.1543L157.097 5.60352H158.847L156.919 13H155.778L155.908 11.1543ZM154.582 5.60352L156.188 11.168L156.4 13H155.409L153.761 7.54492L153.426 5.60352H154.582ZM163.376 13.1367C162.815 13.1367 162.312 13.0456 161.865 12.8633C161.419 12.681 161.038 12.4281 160.724 12.1045C160.414 11.7764 160.174 11.3958 160.006 10.9629C159.842 10.5254 159.76 10.056 159.76 9.55469V9.28125C159.76 8.71159 159.842 8.19434 160.006 7.72949C160.17 7.26009 160.402 6.85677 160.703 6.51953C161.004 6.18229 161.364 5.92253 161.783 5.74023C162.202 5.55794 162.665 5.4668 163.171 5.4668C163.695 5.4668 164.157 5.55566 164.559 5.7334C164.96 5.90658 165.295 6.15267 165.563 6.47168C165.832 6.79069 166.035 7.1735 166.172 7.62012C166.309 8.06217 166.377 8.55208 166.377 9.08984V9.84863H160.58V8.60449H164.6V8.46777C164.59 8.18066 164.536 7.91862 164.435 7.68164C164.335 7.4401 164.18 7.2487 163.971 7.10742C163.761 6.96159 163.49 6.88867 163.157 6.88867C162.888 6.88867 162.654 6.94792 162.453 7.06641C162.257 7.18034 162.093 7.3444 161.961 7.55859C161.833 7.76823 161.738 8.01888 161.674 8.31055C161.61 8.60221 161.578 8.92578 161.578 9.28125V9.55469C161.578 9.86458 161.619 10.1517 161.701 10.416C161.788 10.6803 161.913 10.9105 162.077 11.1064C162.246 11.2979 162.446 11.4482 162.679 11.5576C162.916 11.6624 163.184 11.7148 163.485 11.7148C163.864 11.7148 164.205 11.6419 164.511 11.4961C164.821 11.3457 165.089 11.1247 165.317 10.833L166.226 11.7764C166.072 12.0042 165.862 12.223 165.598 12.4326C165.338 12.6423 165.023 12.8132 164.654 12.9453C164.285 13.0729 163.859 13.1367 163.376 13.1367ZM169.532 7.11426V13H167.727V5.60352H169.436L169.532 7.11426ZM171.781 5.55566L171.753 7.2373C171.653 7.21908 171.539 7.2054 171.411 7.19629C171.288 7.18717 171.172 7.18262 171.063 7.18262C170.785 7.18262 170.541 7.22135 170.331 7.29883C170.122 7.37174 169.946 7.47884 169.805 7.62012C169.668 7.76139 169.563 7.93457 169.491 8.13965C169.418 8.34017 169.377 8.56803 169.367 8.82324L168.978 8.77539C168.978 8.30599 169.026 7.87077 169.121 7.46973C169.217 7.06868 169.356 6.71777 169.538 6.41699C169.721 6.11621 169.949 5.88379 170.222 5.71973C170.5 5.55111 170.819 5.4668 171.179 5.4668C171.279 5.4668 171.386 5.47591 171.5 5.49414C171.619 5.50781 171.712 5.52832 171.781 5.55566Z" fill="#131313"/>
<path d="M9.13043 33.0435H0.730435V20.2608H8.94783V23.42H4.49217V25.1182H7.26783V27.8939H4.49217V29.8843H9.13043V33.0435ZM15.7527 33.2261C14.2188 33.2261 13.0684 32.8426 12.3014 32.0756C11.5345 31.3269 11.151 30.4139 11.151 29.3548V20.2608H14.9127V29.2635C14.9127 29.8661 15.1866 30.1582 15.7345 30.1582C16.264 30.1582 16.5379 29.8661 16.5379 29.2635V20.2608H20.1718V29.2452C20.1718 31.1808 19.0031 33.2261 15.7527 33.2261ZM32.4005 27.9669V33.0435H28.6205V27.9852L25.1327 20.2608H29.2779L30.6474 23.8765L32.0353 20.2608H35.8883L32.4005 27.9669ZM41.5269 33.2261C39.9382 33.2261 38.7513 32.8243 37.9661 32.0026C37.1808 31.1808 36.7974 30.1948 36.7974 29.0261V24.2782C36.7974 23.1095 37.1808 22.1235 37.9661 21.3017C38.7513 20.48 39.9382 20.0782 41.5269 20.0782C43.1156 20.0782 44.2843 20.48 45.0695 21.3017C45.8548 22.1235 46.2382 23.1095 46.2382 24.2782V29.0261C46.2382 30.1948 45.8548 31.1808 45.0695 32.0026C44.2843 32.8243 43.1156 33.2261 41.5269 33.2261ZM40.7052 24.0226V29.2817C40.7052 29.8661 40.9791 30.1582 41.5269 30.1582C42.0748 30.1582 42.3487 29.8661 42.3487 29.2817V24.0226C42.3487 23.4382 42.0748 23.1461 41.5269 23.1461C40.9791 23.1461 40.7052 23.4382 40.7052 24.0226ZM53.1262 33.2261C51.5922 33.2261 50.4418 32.8426 49.6748 32.0756C48.9079 31.3269 48.5244 30.4139 48.5244 29.3548V20.2608H52.2862V29.2635C52.2862 29.8661 52.5601 30.1582 53.1079 30.1582C53.6375 30.1582 53.9114 29.8661 53.9114 29.2635V20.2608H57.5453V29.2452C57.5453 31.1808 56.3766 33.2261 53.1262 33.2261ZM66.0623 23.42V33.0435H62.3005V23.42H59.5431V20.2608H68.8379V23.42H66.0623ZM76.5286 28.1678H74.666V33.0435H70.9042V20.2608H74.666V25.0635H76.5286V20.2608H80.2903V33.0435H76.5286V28.1678ZM95.1654 23.5478V24.4791H91.5863V23.7669C91.5863 23.2008 91.3306 22.9269 90.801 22.9269C90.3445 22.9269 90.0341 23.2191 90.0341 23.6391V23.7304C90.0341 24.0591 90.3263 24.3513 90.8923 24.6252L92.7732 25.5017C94.508 26.2869 95.3845 27.4556 95.3845 28.9713V29.2452C95.3845 30.213 95.0741 31.1078 94.3802 31.893C93.6863 32.6965 92.3532 33.2078 90.6732 33.2078C89.121 33.2078 87.9523 32.8426 87.1671 32.1122C86.3819 31.4 85.9802 30.5417 85.9802 29.5556V28.6061H89.6506V29.4643C89.6506 29.9756 89.961 30.3043 90.5271 30.3043C91.0567 30.3043 91.3671 29.9756 91.3671 29.5556V29.4461C91.3671 28.9348 91.0202 28.7339 90.0158 28.2956L88.5002 27.6382C86.8567 26.8895 86.035 25.7208 86.035 24.1322V23.8582C86.035 22.7808 86.4367 21.8861 87.2584 21.1556C88.0802 20.4435 89.1941 20.0782 90.6367 20.0782C92.1523 20.0782 93.2845 20.4252 94.0332 21.1374C94.7819 21.8495 95.1654 22.653 95.1654 23.5478ZM103.364 23.42V33.0435H99.6026V23.42H96.8452V20.2608H106.14V23.42H103.364ZM111.968 23.1826V25.7574H112.571C113.356 25.7574 113.739 25.3922 113.739 24.6435V24.26C113.739 23.5478 113.356 23.1826 112.571 23.1826H111.968ZM117.739 33.0435H113.904C113.721 32.7513 113.612 32.0756 113.575 31.0348L113.52 29.72C113.502 28.8617 113.155 28.4965 112.443 28.4965H111.968V33.0435H108.206V20.2608H113.374C115.949 20.2608 117.592 21.6487 117.592 23.8217V24.1687C117.592 25.4104 117.008 26.5608 115.748 27.1452C116.862 27.6017 117.3 28.5513 117.392 29.9939L117.483 31.3817C117.538 32.0208 117.629 32.6235 117.702 32.8608L117.739 33.0435ZM126.527 20.2608L129.175 33.0435H125.303L125.011 31.3087H122.783L122.473 33.0435H119.04L121.688 20.2608H126.527ZM124.609 28.8982L123.952 24.8443L123.222 28.8982H124.609ZM136.129 23.42V33.0435H132.367V23.42H129.61V20.2608H138.905V23.42H136.129ZM149.371 33.0435H140.971V20.2608H149.188V23.42H144.733V25.1182H147.508V27.8939H144.733V29.8843H149.371V33.0435ZM158.879 33.0435L158.02 32.1852C157.418 32.8791 156.523 33.2261 155.336 33.2261C152.725 33.2261 151.264 31.5461 151.264 29.0808V24.3513C151.264 23.1826 151.666 22.1782 152.469 21.3382C153.272 20.4982 154.459 20.0782 156.048 20.0782C157.564 20.0782 158.714 20.48 159.499 21.2835C160.266 22.1052 160.65 23.073 160.65 24.1869V25.2095H156.925V24.0226C156.925 23.6026 156.687 23.1461 156.048 23.1461C155.409 23.1461 155.172 23.6026 155.172 24.0226V29.1539C155.172 29.6835 155.482 30.14 156.139 30.1582C156.724 30.1765 157.089 29.7565 157.089 29.1539V28.6426H155.92V26.2687H160.741V33.0435H158.879ZM168.96 27.9669V33.0435H165.18V27.9852L161.692 20.2608H165.837L167.207 23.8765L168.594 20.2608H172.448L168.96 27.9669Z" fill="#131313"/>
</svg>
