<svg width="14" height="17" viewBox="0 0 14 17" fill="none" xmlns="http://www.w3.org/2000/svg">
<path d="M13.998 7.32727C12.6222 7.33056 11.2801 6.9015 10.1614 6.1007V11.6857C10.161 12.7201 9.84484 13.7297 9.25517 14.5796C8.66549 15.4295 7.8304 16.079 6.86158 16.4415C5.89275 16.8039 4.83636 16.862 3.83366 16.6078C2.83097 16.3537 1.92976 15.7995 1.25054 15.0193C0.571319 14.2392 0.146465 13.2702 0.0327867 12.2421C-0.0808918 11.2139 0.122023 10.1756 0.614399 9.26591C1.10678 8.35621 1.86514 7.6185 2.7881 7.15144C3.71105 6.68439 4.7546 6.51023 5.77921 6.65227V9.46133C5.31034 9.31385 4.80687 9.31829 4.34069 9.47402C3.8745 9.62975 3.46944 9.9288 3.18336 10.3285C2.89727 10.7281 2.74479 11.208 2.74768 11.6995C2.75058 12.191 2.9087 12.669 3.19948 13.0653C3.49025 13.4616 3.8988 13.7558 4.36679 13.906C4.83478 14.0563 5.33827 14.0548 5.80536 13.9018C6.27245 13.7488 6.67926 13.4521 6.96768 13.0541C7.25611 12.6562 7.4114 12.1772 7.41139 11.6857V0.767578H10.1614C10.1595 0.999811 10.1789 1.23173 10.2195 1.46039C10.3151 1.97085 10.5138 2.45646 10.8034 2.8875C11.0931 3.31853 11.4677 3.68595 11.9042 3.96727C12.5253 4.37792 13.2534 4.5968 13.998 4.59664V7.32727Z" fill="#131313"/>
</svg>
