<svg width="18" height="19" viewBox="0 0 18 19" fill="none" xmlns="http://www.w3.org/2000/svg">
<path d="M13 0.765625C14.3261 0.765625 15.5979 1.29241 16.5355 2.23009C17.4732 3.16777 18 4.43954 18 5.76562V13.7656C18 15.0917 17.4732 16.3635 16.5355 17.3012C15.5979 18.2388 14.3261 18.7656 13 18.7656H5C3.67392 18.7656 2.40215 18.2388 1.46447 17.3012C0.526784 16.3635 0 15.0917 0 13.7656V5.76562C0 4.43954 0.526784 3.16777 1.46447 2.23009C2.40215 1.29241 3.67392 0.765625 5 0.765625H13ZM9 5.76562C7.93913 5.76562 6.92172 6.18705 6.17157 6.9372C5.42143 7.68734 5 8.70476 5 9.76562C5 10.8265 5.42143 11.8439 6.17157 12.5941C6.92172 13.3442 7.93913 13.7656 9 13.7656C10.0609 13.7656 11.0783 13.3442 11.8284 12.5941C12.5786 11.8439 13 10.8265 13 9.76562C13 8.70476 12.5786 7.68734 11.8284 6.9372C11.0783 6.18705 10.0609 5.76562 9 5.76562ZM9 7.76562C9.53043 7.76562 10.0391 7.97634 10.4142 8.35141C10.7893 8.72648 11 9.23519 11 9.76562C11 10.2961 10.7893 10.8048 10.4142 11.1798C10.0391 11.5549 9.53043 11.7656 9 11.7656C8.46957 11.7656 7.96086 11.5549 7.58579 11.1798C7.21071 10.8048 7 10.2961 7 9.76562C7 9.23519 7.21071 8.72648 7.58579 8.35141C7.96086 7.97634 8.46957 7.76562 9 7.76562ZM13.5 4.26562C13.2348 4.26562 12.9804 4.37098 12.7929 4.55852C12.6054 4.74605 12.5 5.00041 12.5 5.26562C12.5 5.53084 12.6054 5.7852 12.7929 5.97273C12.9804 6.16027 13.2348 6.26562 13.5 6.26562C13.7652 6.26562 14.0196 6.16027 14.2071 5.97273C14.3946 5.7852 14.5 5.53084 14.5 5.26562C14.5 5.00041 14.3946 4.74605 14.2071 4.55852C14.0196 4.37098 13.7652 4.26562 13.5 4.26562Z" fill="#131313"/>
</svg>
