<svg width="258" height="20" viewBox="0 0 258 20" fill="none" xmlns="http://www.w3.org/2000/svg">
<g clip-path="url(#clip0_0_416)">
<path d="M0.380066 18.616V1.30762H5.1731V14.3351H14.2748V18.616H0.380066Z" fill="#131313"/>
<path d="M20.4519 1.30762H15.7926V18.616H20.4519V1.30762Z" fill="#131313"/>
<path d="M32.6538 18.6158H28.4835L22.039 1.35352H27.2103L30.5594 10.2984L33.9039 1.35352H39.0798L32.6538 18.6158Z" fill="#131313"/>
<path d="M45.275 1.30762H40.6158V18.616H45.275V1.30762Z" fill="#131313"/>
<path d="M58.7037 18.593L52.7066 9.36212V18.593H48.0889V1.30762H52.6836L58.7037 10.6307V1.30762H63.3445V18.593H58.7037Z" fill="#131313"/>
<path d="M78.5542 18.6158V18.1268C77.2164 18.8095 75.8047 19.1509 74.3147 19.1509C73.023 19.1509 71.819 18.911 70.7119 18.4359C69.6047 17.9607 68.6406 17.3103 67.824 16.4845C67.0075 15.6588 66.3663 14.6946 65.905 13.5829C65.4437 12.4757 65.213 11.2809 65.213 10.0031C65.213 8.72524 65.4483 7.57196 65.9142 6.45559C66.3801 5.33922 67.0306 4.36123 67.8563 3.52165C68.6821 2.68206 69.6462 2.02238 70.7534 1.53801C71.8697 1.05824 73.0599 0.818359 74.3424 0.818359C75.7079 0.818359 77.0088 1.1136 78.2359 1.69946C79.4629 2.28533 80.5286 3.11569 81.4374 4.18594L77.6454 6.7047C77.1841 6.24339 76.6766 5.89279 76.1184 5.64368C75.5602 5.39919 74.9698 5.27463 74.347 5.27463C73.7242 5.27463 73.0876 5.4038 72.5294 5.66675C71.9712 5.92508 71.4869 6.27107 71.0809 6.7047C70.6703 7.13833 70.352 7.63655 70.1214 8.20857C69.8907 8.7806 69.7754 9.38492 69.7754 10.0261C69.7754 10.6674 69.8907 11.2763 70.1214 11.8529C70.352 12.4342 70.6749 12.937 71.0901 13.3707C71.5053 13.7997 71.9943 14.1457 72.5525 14.4086C73.1107 14.6669 73.715 14.8007 74.3701 14.8007C75.0666 14.8007 75.7355 14.6439 76.3675 14.3348C76.9995 14.0211 77.53 13.5829 77.9637 13.0201H74.9098V8.8498H82.5168V18.6204H78.568L78.5542 18.6158Z" fill="#131313"/>
<path d="M96.1992 5.57014V7.93206H104.138V12.1484H96.1992V18.616H91.5814V1.66744L91.9366 1.30762H105.209V5.57014H96.1992Z" fill="#131313"/>
<path d="M115.468 19.1508C114.19 19.1508 112.991 18.9109 111.879 18.4357C110.763 17.9606 109.789 17.3101 108.959 16.4844C108.124 15.6586 107.469 14.6899 106.985 13.5735C106.5 12.4571 106.26 11.267 106.26 10.0076C106.26 8.74819 106.5 7.5534 106.985 6.43702C107.469 5.32065 108.124 4.35189 108.959 3.52614C109.789 2.7004 110.767 2.04533 111.879 1.56557C112.996 1.08119 114.19 0.841309 115.468 0.841309C116.746 0.841309 117.927 1.08119 119.048 1.56557C120.169 2.04995 121.147 2.70501 121.982 3.52614C122.812 4.35189 123.472 5.32065 123.956 6.43702C124.441 7.5534 124.681 8.74358 124.681 10.0076C124.681 11.2716 124.441 12.4618 123.956 13.5735C123.472 14.6899 122.817 15.6586 121.982 16.4844C121.147 17.3101 120.174 17.9606 119.048 18.4357C117.927 18.9109 116.732 19.1508 115.468 19.1508ZM115.468 5.25606C114.813 5.25606 114.209 5.38523 113.651 5.64818C113.092 5.90651 112.613 6.2525 112.211 6.68613C111.81 7.11515 111.492 7.61798 111.266 8.19001C111.035 8.76203 110.92 9.37096 110.92 10.0076C110.92 10.6442 111.035 11.2347 111.266 11.8159C111.496 12.3972 111.81 12.9 112.211 13.3336C112.613 13.7673 113.092 14.1086 113.651 14.3716C114.209 14.6299 114.813 14.7637 115.468 14.7637C116.123 14.7637 116.728 14.6345 117.286 14.3716C117.844 14.1132 118.324 13.7673 118.725 13.3336C119.126 12.9046 119.44 12.3972 119.671 11.8159C119.901 11.2347 120.017 10.635 120.017 10.0076C120.017 9.38019 119.901 8.76203 119.671 8.19001C119.44 7.61798 119.126 7.11515 118.725 6.68613C118.324 6.25711 117.844 5.91113 117.286 5.64818C116.728 5.38984 116.123 5.25606 115.468 5.25606Z" fill="#131313"/>
<path d="M137.593 18.616L134.58 13.2648H131.66L131.683 18.616H126.909V1.30762H135.586C136.001 1.30762 136.426 1.38604 136.859 1.54289C137.288 1.69973 137.708 1.90732 138.109 2.16566C138.511 2.42399 138.884 2.71923 139.226 3.04676C139.567 3.37429 139.858 3.70644 140.098 4.05242C140.393 4.48606 140.624 4.98427 140.78 5.5563C140.937 6.12833 141.016 6.67729 141.016 7.19396C141.016 8.05661 140.813 8.85929 140.411 9.60201C140.01 10.3447 139.452 10.9721 138.737 11.4749L142.796 18.6114H137.597L137.593 18.616ZM134.225 5.1688H131.527V8.89158H134.225C134.493 8.89158 134.747 8.84545 134.982 8.74858C135.222 8.6517 135.429 8.51792 135.605 8.35185C135.784 8.18116 135.923 7.98741 136.029 7.76598C136.135 7.54455 136.186 7.30006 136.186 7.0325C136.186 6.76494 136.135 6.52505 136.029 6.29901C135.923 6.07758 135.784 5.87922 135.605 5.71314C135.425 5.54246 135.217 5.40868 134.982 5.3118C134.742 5.21493 134.493 5.1688 134.225 5.1688Z" fill="#131313"/>
<path d="M159.108 19.1508C157.831 19.1508 156.631 18.9109 155.519 18.4357C154.403 17.9606 153.43 17.3101 152.599 16.4844C151.764 15.6586 151.109 14.6899 150.625 13.5735C150.14 12.4571 149.901 11.267 149.901 10.0076C149.901 8.74819 150.14 7.5534 150.625 6.43702C151.109 5.32065 151.764 4.35189 152.599 3.52614C153.43 2.7004 154.408 2.04533 155.519 1.56557C156.636 1.08119 157.831 0.841309 159.108 0.841309C160.386 0.841309 161.567 1.08119 162.688 1.56557C163.809 2.04995 164.787 2.70501 165.622 3.52614C166.452 4.35189 167.112 5.32065 167.597 6.43702C168.081 7.5534 168.321 8.74358 168.321 10.0076C168.321 11.2716 168.081 12.4618 167.597 13.5735C167.112 14.6899 166.457 15.6586 165.622 16.4844C164.787 17.3101 163.814 17.9606 162.688 18.4357C161.567 18.9109 160.372 19.1508 159.108 19.1508ZM159.108 5.25606C158.453 5.25606 157.849 5.38523 157.291 5.64818C156.733 5.90651 156.253 6.2525 155.851 6.68613C155.45 7.11515 155.132 7.61798 154.906 8.19001C154.675 8.76203 154.56 9.37096 154.56 10.0076C154.56 10.6442 154.675 11.2347 154.906 11.8159C155.136 12.3972 155.45 12.9 155.851 13.3336C156.253 13.7673 156.733 14.1086 157.291 14.3716C157.849 14.6299 158.453 14.7637 159.108 14.7637C159.763 14.7637 160.368 14.6345 160.926 14.3716C161.484 14.1132 161.964 13.7673 162.365 13.3336C162.767 12.9046 163.08 12.3972 163.311 11.8159C163.542 11.2347 163.657 10.635 163.657 10.0076C163.657 9.38019 163.542 8.76203 163.311 8.19001C163.08 7.61798 162.767 7.11515 162.365 6.68613C161.964 6.25711 161.484 5.91113 160.926 5.64818C160.368 5.38984 159.763 5.25606 159.108 5.25606Z" fill="#131313"/>
<path d="M182.28 5.5932H177.529V18.616H172.823V5.5932H168.072L167.763 5.27951V1.30762H182.594V5.27951L182.28 5.5932Z" fill="#131313"/>
<path d="M195.372 18.616V12.0839H189.241V18.616H184.444V1.30762H189.241V7.9136H195.372V1.30762H200.211V18.616H195.372Z" fill="#131313"/>
<path d="M202.891 18.616V1.30762H216.694V5.43636H207.394V7.9136H216.159V12.0377H207.394V14.515H216.694V18.616H202.891Z" fill="#131313"/>
<path d="M229.897 18.616L226.884 13.2648H223.959L223.983 18.616H219.208V1.30762H227.885C228.3 1.30762 228.725 1.38604 229.158 1.54289C229.587 1.69973 230.007 1.90732 230.409 2.16566C230.81 2.42399 231.184 2.71923 231.525 3.04676C231.866 3.37429 232.157 3.70644 232.397 4.05242C232.692 4.48606 232.923 4.98427 233.08 5.5563C233.236 6.12833 233.315 6.67729 233.315 7.19396C233.315 8.05661 233.112 8.85929 232.711 9.60201C232.309 10.3447 231.751 10.9721 231.036 11.4749L235.096 18.6114H229.897V18.616ZM226.529 5.1688H223.83V8.89158H226.529C226.797 8.89158 227.05 8.84545 227.286 8.74858C227.525 8.6517 227.733 8.51792 227.908 8.35185C228.088 8.18116 228.227 7.98741 228.333 7.76598C228.434 7.54455 228.49 7.30006 228.49 7.0325C228.49 6.76494 228.439 6.52505 228.333 6.29901C228.227 6.07758 228.088 5.87922 227.908 5.71314C227.728 5.54246 227.521 5.40868 227.286 5.3118C227.046 5.21493 226.797 5.1688 226.529 5.1688Z" fill="#131313"/>
<path d="M243.169 19.1509C242.011 19.1509 240.862 19.0125 239.723 18.7403C238.583 18.4681 237.494 18.0853 236.457 17.5963C236.424 17.5963 236.35 17.5686 236.235 17.5086C236.115 17.4348 236.055 17.3841 236.055 17.3518C236.055 17.3379 236.083 17.278 236.143 17.1765C236.203 17.075 236.277 16.9458 236.364 16.789C236.452 16.6321 236.558 16.4568 236.678 16.2585C236.798 16.0601 236.918 15.8571 237.033 15.6495C237.287 15.2344 237.522 14.8422 237.748 14.4686C237.97 14.0995 238.126 13.832 238.214 13.6659C238.408 13.7397 238.592 13.8274 238.772 13.9335C239.575 14.3348 240.382 14.6439 241.194 14.8607C242.006 15.0775 242.864 15.1836 243.768 15.1836C244.022 15.1836 244.294 15.1744 244.58 15.1513C244.871 15.1283 245.134 15.0729 245.374 14.9852C245.614 14.8976 245.807 14.7592 245.964 14.5701C246.121 14.3855 246.199 14.118 246.199 13.7766C246.199 13.6151 246.153 13.4675 246.066 13.343C245.978 13.2184 245.863 13.1031 245.733 13.0062C245.6 12.9093 245.457 12.8217 245.309 12.7479C245.161 12.6741 245.018 12.6141 244.885 12.568C244.571 12.448 244.253 12.3604 243.925 12.3004C243.598 12.2404 243.27 12.1759 242.943 12.0974C242.514 11.9913 242.085 11.8945 241.669 11.8068C241.254 11.7192 240.853 11.6131 240.465 11.4931C240.064 11.3732 239.681 11.244 239.317 11.101C238.952 10.958 238.615 10.7919 238.302 10.5982C237.661 10.2107 237.153 9.694 236.775 9.04816C236.397 8.40233 236.207 7.53967 236.207 6.46943C236.207 6.09577 236.249 5.7221 236.332 5.34383C236.415 4.96555 236.535 4.60112 236.701 4.25975C237.029 3.577 237.453 3.00959 237.974 2.56212C238.496 2.11465 239.072 1.76405 239.704 1.51033C240.336 1.25661 241 1.07669 241.702 0.975205C242.398 0.869104 243.099 0.818359 243.796 0.818359C244.94 0.818359 246.07 0.956753 247.187 1.23354C248.303 1.51033 249.364 1.96241 250.374 2.5898C250.001 3.21718 249.641 3.83534 249.295 4.43966C248.949 5.04398 248.594 5.65752 248.234 6.2849C247.371 5.86972 246.536 5.52835 245.724 5.26079C244.912 4.99323 244.04 4.85945 243.104 4.85945C242.883 4.85945 242.647 4.86868 242.403 4.89174C242.158 4.91481 241.932 4.97017 241.725 5.05781C241.517 5.14546 241.346 5.27463 241.213 5.44532C241.079 5.616 241.01 5.84204 241.01 6.12345C241.01 6.33104 241.056 6.51095 241.143 6.65857C241.25 6.82003 241.439 6.96765 241.711 7.0922C241.988 7.21675 242.324 7.33208 242.726 7.43818C243.127 7.54429 243.565 7.64116 244.04 7.73804C244.516 7.83491 245.014 7.95024 245.535 8.08402C246.038 8.2178 246.55 8.37003 247.062 8.54072C247.574 8.7114 248.059 8.91899 248.511 9.16349C248.963 9.40799 249.369 9.69861 249.728 10.0308C250.084 10.3675 250.37 10.7642 250.577 11.2209C250.739 11.5623 250.854 11.9314 250.914 12.3235C250.974 12.7156 251.002 13.1077 251.002 13.4906C251.002 14.6208 250.771 15.548 250.31 16.2723C249.848 17.0012 249.249 17.5732 248.501 17.9976C247.759 18.422 246.919 18.7173 245.983 18.8879C245.046 19.0586 244.11 19.1463 243.173 19.1463" fill="#131313"/>
<path d="M255.504 19.1505C255.223 19.1505 254.95 19.0998 254.692 18.9937C254.434 18.8875 254.203 18.7445 254.014 18.56C253.82 18.3755 253.668 18.1587 253.557 17.9142C253.447 17.6697 253.391 17.3975 253.391 17.1023C253.391 16.8209 253.447 16.5533 253.557 16.2996C253.668 16.0459 253.82 15.8244 254.014 15.6307C254.208 15.4369 254.434 15.2893 254.692 15.1832C254.95 15.0771 255.223 15.0264 255.504 15.0264C255.785 15.0264 256.058 15.0771 256.316 15.1832C256.574 15.2893 256.805 15.4369 256.999 15.6307C257.192 15.8244 257.345 16.0459 257.455 16.2996C257.566 16.5533 257.621 16.8209 257.621 17.1023C257.621 17.6835 257.414 18.1679 256.999 18.5646C256.583 18.9567 256.085 19.1551 255.504 19.1551" fill="#131313"/>
</g>
<defs>
<clipPath id="clip0_0_416">
<rect width="257.241" height="18.3325" fill="white" transform="translate(0.380188 0.817871)"/>
</clipPath>
</defs>
</svg>
