<svg width="18" height="17" viewBox="0 0 18 17" fill="none" xmlns="http://www.w3.org/2000/svg">
<path d="M15.3422 0.611328C15.8228 0.611328 16.2837 0.802242 16.6236 1.14207C16.9634 1.4819 17.1543 1.9428 17.1543 2.42339V15.1079C17.1543 15.5884 16.9634 16.0494 16.6236 16.3892C16.2837 16.729 15.8228 16.9199 15.3422 16.9199H2.65777C2.17718 16.9199 1.71627 16.729 1.37644 16.3892C1.03662 16.0494 0.845703 15.5884 0.845703 15.1079V2.42339C0.845703 1.9428 1.03662 1.4819 1.37644 1.14207C1.71627 0.802242 2.17718 0.611328 2.65777 0.611328H15.3422ZM14.8892 14.6548V9.85286C14.8892 9.0695 14.578 8.31823 14.0241 7.76431C13.4702 7.21039 12.7189 6.8992 11.9355 6.8992C11.1654 6.8992 10.2684 7.37033 9.83355 8.07704V7.07134H7.30572V14.6548H9.83355V10.1881C9.83355 9.49045 10.3953 8.91965 11.0929 8.91965C11.4293 8.91965 11.752 9.05329 11.9899 9.29117C12.2277 9.52905 12.3614 9.85168 12.3614 10.1881V14.6548H14.8892ZM4.36111 5.64887C4.76481 5.64887 5.15197 5.4885 5.43742 5.20305C5.72288 4.91759 5.88325 4.53043 5.88325 4.12674C5.88325 3.28413 5.20372 2.59554 4.36111 2.59554C3.95501 2.59554 3.56555 2.75686 3.27839 3.04402C2.99124 3.33117 2.82992 3.72064 2.82992 4.12674C2.82992 4.96935 3.5185 5.64887 4.36111 5.64887ZM5.6205 14.6548V7.07134H3.11079V14.6548H5.6205Z" fill="#131313"/>
</svg>
