<svg width="20" height="21" viewBox="0 0 20 21" fill="none" xmlns="http://www.w3.org/2000/svg">
<path fill-rule="evenodd" clip-rule="evenodd" d="M7.21287 1.15987C5.28002 1.72291 3.56175 2.85542 2.28222 4.40967C1.00268 5.96392 0.221299 7.86773 0.0400085 9.87273H4.61144C4.87791 6.82165 5.76253 3.85673 7.21144 1.15844L7.21287 1.15987ZM4.61144 11.6584H0.0400085C0.220922 13.6635 1.00197 15.5675 2.28125 17.122C3.56053 18.6765 5.27865 19.8094 7.21144 20.3727C5.76253 17.6744 4.87791 14.7095 4.61144 11.6584ZM9.50287 20.7542C7.77084 18.0072 6.70893 14.8914 6.40287 11.6584H13.5957C13.2897 14.8914 12.2278 18.0072 10.4957 20.7542C10.165 20.7706 9.83361 20.7706 9.50287 20.7542ZM12.7886 20.3713C14.7212 19.808 16.4391 18.6754 17.7184 17.1212C18.9976 15.5669 19.7788 13.6633 19.96 11.6584H15.3886C15.1221 14.7095 14.2375 17.6744 12.7886 20.3727V20.3713ZM15.3886 9.87273H19.96C19.7791 7.86765 18.998 5.96366 17.7188 4.40915C16.4395 2.85465 14.7214 1.72181 12.7886 1.15844C14.2375 3.85673 15.1221 6.82165 15.3886 9.87273ZM9.50287 0.777014C9.83409 0.760527 10.1659 0.760527 10.4972 0.777014C12.2287 3.52413 13.2901 6.63986 13.5957 9.87273H6.40429C6.71429 6.61987 7.77858 3.5013 9.50287 0.777014Z" fill="#131313"/>
</svg>
