<svg width="20" height="17" viewBox="0 0 20 17" fill="none" xmlns="http://www.w3.org/2000/svg">
<path d="M17.9018 4.13872C17.8118 4.46872 17.4118 5.29872 16.7318 6.08872C16.2818 14.7687 7.86184 17.5887 2.09184 14.6787C1.30184 13.6287 4.94184 14.0587 6.27184 12.0487C1.24184 9.47872 1.64184 2.60872 2.65184 2.88872C5.02184 6.07872 8.84184 6.36872 9.46184 6.07872C9.46184 5.34872 9.15184 3.75872 10.8718 2.42872C11.8618 1.71872 13.9318 1.08872 15.8018 3.11872C16.1218 3.32872 16.5818 3.41872 17.2718 3.26872C17.6818 3.05872 18.2218 3.19872 17.9418 3.92872L17.9018 4.13872Z" fill="#131313" stroke="#131313" stroke-width="2" stroke-linecap="round" stroke-linejoin="round"/>
</svg>
