<svg width="20" height="17" viewBox="0 0 20 17" fill="none" xmlns="http://www.w3.org/2000/svg">
<path fill-rule="evenodd" clip-rule="evenodd" d="M10 0.765625C10.855 0.765625 11.732 0.787625 12.582 0.823625L13.586 0.871625L14.547 0.928625L15.447 0.989625L16.269 1.05363C17.1612 1.12152 18.0008 1.50206 18.64 2.12823C19.2791 2.75439 19.6768 3.58602 19.763 4.47662L19.803 4.90162L19.878 5.81162C19.948 6.75462 20 7.78263 20 8.76562C20 9.74862 19.948 10.7766 19.878 11.7196L19.803 12.6296L19.763 13.0546C19.6768 13.9454 19.2789 14.7771 18.6396 15.4033C18.0002 16.0295 17.1604 16.41 16.268 16.4776L15.448 16.5406L14.548 16.6026L13.586 16.6596L12.582 16.7076C11.7218 16.7449 10.861 16.7642 10 16.7656C9.13902 16.7642 8.27817 16.7449 7.418 16.7076L6.414 16.6596L5.453 16.6026L4.553 16.5406L3.731 16.4776C2.83881 16.4097 1.9992 16.0292 1.36004 15.403C0.720888 14.7769 0.323191 13.9452 0.237 13.0546L0.197 12.6296L0.122 11.7196C0.0458327 10.7367 0.00513964 9.75144 0 8.76562C0 7.78263 0.052 6.75462 0.122 5.81162L0.197 4.90162L0.237 4.47662C0.323157 3.58618 0.720712 2.75468 1.35966 2.12853C1.99861 1.50238 2.83799 1.12174 3.73 1.05363L4.551 0.989625L5.451 0.928625L6.413 0.871625L7.417 0.823625C8.2775 0.786352 9.13869 0.767015 10 0.765625ZM8 6.34062V11.1906C8 11.6526 8.5 11.9406 8.9 11.7106L13.1 9.28563C13.1914 9.23302 13.2673 9.15725 13.3201 9.06596C13.3729 8.97467 13.4007 8.87108 13.4007 8.76562C13.4007 8.66017 13.3729 8.55658 13.3201 8.46529C13.2673 8.374 13.1914 8.29823 13.1 8.24562L8.9 5.82162C8.80876 5.76895 8.70526 5.74122 8.5999 5.74124C8.49455 5.74126 8.39106 5.76901 8.29983 5.82172C8.20861 5.87443 8.13287 5.95023 8.08024 6.04149C8.02761 6.13276 7.99993 6.23627 8 6.34163V6.34062Z" fill="#131313"/>
</svg>
